<?xml version="1.0" encoding="utf-8"?>
<!-- Generator: Adobe Illustrator 16.0.4, SVG Export Plug-In . SVG Version: 6.00 Build 0)  -->
<!DOCTYPE svg PUBLIC "-//W3C//DTD SVG 1.1//EN" "http://www.w3.org/Graphics/SVG/1.1/DTD/svg11.dtd">
<svg version="1.1" id="Layer_2" xmlns="http://www.w3.org/2000/svg" xmlns:xlink="http://www.w3.org/1999/xlink" x="0px" y="0px"
	 width="128px" height="128px" viewBox="0 0 128 128" enable-background="new 0 0 128 128" xml:space="preserve">
<path opacity="0.4" fill="#FFFFFF" enable-background="new    " d="M64,4C30.864,4,4,30.864,4,64c0,33.137,26.864,60,60,60
	c33.137,0,60-26.863,60-60C124,30.864,97.137,4,64,4z M64,116c-28.718,0-52-23.281-52-52c0-28.718,23.282-52,52-52
	c28.719,0,52,23.282,52,52C116,92.719,92.719,116,64,116z"/>
<path opacity="0.8" fill="#0F0F0F" enable-background="new    " d="M64,12c-28.718,0-52,23.282-52,52c0,28.719,23.282,52,52,52
	c28.719,0,52-23.281,52-52C116,35.282,92.719,12,64,12z M55.578,88.363V39.638L83.422,64L55.578,88.363z"/>
<polygon fill="#FFFFFF" points="55.578,88.363 83.422,64 55.578,39.638 "/>
</svg>
