<svg xmlns="http://www.w3.org/2000/svg" width="50" height="750" viewBox="0 0 50 750"><path fill="none" d="M0 150h50v150h-50zM0 300h50v150h-50zM0 450h50v150h-50zM0 0h50v150h-50zM0 600h50v150h-50z"/><g fill="#fff"><path d="M39.395 145h-34.172c-1.677 0-3.041-1.364-3.041-3.04v-45.301c0-1.676 1.363-3.041 3.041-3.041h34.172c1.676 0 3.041 1.363 3.041 3.041v5.02c0 .129-.043.254-.123.354l-3.08 3.946c-.109.141-.277.223-.455.223h-25.592c-.797 0-1.446.648-1.446 1.445v28.523c0 .797.648 1.445 1.446 1.445l28.674-.001c.152 0 .299.061.406.169.108.107.17.254.17.406v3.77c0 1.677-1.366 3.041-3.041 3.041zm-36.061-43.129v40.089c0 1.041.848 1.889 1.889 1.889h34.172c1.041 0 1.889-.848 1.889-1.889v-3.193l-28.098.002c-1.434 0-2.599-1.166-2.599-2.598v-28.523c0-1.433 1.166-2.598 2.599-2.598h25.312l2.481-3.179h-37.645zm0-1.152h37.949v-4.06c0-1.041-.848-1.889-1.889-1.889h-34.171c-1.041 0-1.889.848-1.889 1.889v4.06zm35.283 34.75h-18.404c-1.676 0-3.04-1.364-3.04-3.04v-17.174l-2.511-3.434c-.128-.174-.146-.406-.049-.6.098-.195.297-.316.514-.316h25.955c.318 0 .576.259.576.576v3.91h3.119c1.677 0 3.041 1.363 3.041 3.041v8.625c0 1.676-1.363 3.041-3.041 3.041h-3.119v2.332c0 1.674-1.364 3.039-3.041 3.039zm-22.354-23.411l1.951 2.67c.072.099.111.217.111.34v17.361c0 1.041.847 1.889 1.888 1.889h18.404c1.042 0 1.889-.848 1.889-1.889v-20.371h-24.243zm25.395 16.886h3.119c1.041 0 1.889-.846 1.889-1.887v-8.627c0-1.041-.848-1.888-1.889-1.888h-3.119v12.402zm-3.262 2.429h-10.292c-.317 0-.576-.258-.576-.576 0-.317.259-.575.576-.575h10.293c.318 0 .576.258.576.575 0 .318-.258.576-.577.576zm0-3.707h-10.292c-.317 0-.576-.258-.576-.576 0-.317.259-.575.576-.575h10.293c.318 0 .576.258.576.575 0 .318-.258.576-.577.576zm0-3.708h-10.292c-.317 0-.576-.258-.576-.576s.259-.576.576-.576h10.293c.318 0 .576.258.576.576s-.258.576-.577.576zm0-3.708h-10.292c-.317 0-.576-.258-.576-.576 0-.317.259-.575.576-.575h10.293c.318 0 .576.258.576.575 0 .318-.258.576-.577.576zm0-3.707h-10.292c-.317 0-.576-.258-.576-.576 0-.317.259-.575.576-.575h10.293c.318 0 .576.258.576.575 0 .318-.258.576-.577.576zM39.621 97.858c0 .527-.428.955-.955.955s-.957-.428-.957-.955.43-.955.957-.955.955.428.955.955"/></g><g fill="#fff"><path d="M39.395 295h-34.172c-1.677 0-3.041-1.364-3.041-3.04v-45.301c0-1.677 1.363-3.041 3.041-3.041h34.172c1.676 0 3.041 1.364 3.041 3.041v5.021c0 .127-.043.252-.123.354l-3.08 3.947c-.109.14-.277.222-.455.222h-25.592c-.797 0-1.446.647-1.446 1.444v28.523c0 .797.648 1.445 1.446 1.445h28.674c.317 0 .576.258.576.576v3.769c0 1.676-1.366 3.04-3.041 3.04zm-36.061-43.13v40.09c0 1.041.848 1.888 1.889 1.888h34.172c1.041 0 1.889-.847 1.889-1.888v-3.192h-28.098c-1.434 0-2.599-1.166-2.599-2.598v-28.523c0-1.432 1.166-2.597 2.599-2.597h25.312l2.483-3.18h-37.647zm0-1.152h37.949v-4.059c0-1.041-.848-1.888-1.889-1.888h-34.171c-1.041 0-1.889.847-1.889 1.888v4.059zm35.283 34.75h-18.404c-1.676 0-3.04-1.364-3.04-3.04v-17.174l-2.511-3.434c-.128-.174-.146-.406-.049-.6.098-.195.297-.315.514-.315h25.955c.318 0 .576.258.576.575v3.91h3.119c1.677 0 3.041 1.363 3.041 3.041v8.625c0 1.676-1.363 3.041-3.041 3.041h-3.119v2.332c0 1.675-1.364 3.039-3.041 3.039zm-22.354-23.411l1.951 2.67c.072.099.111.217.111.34v17.361c0 1.041.847 1.889 1.888 1.889h18.404c1.042 0 1.889-.848 1.889-1.889v-20.371h-24.243zm25.395 16.886h3.119c1.041 0 1.889-.846 1.889-1.887v-8.627c0-1.041-.848-1.888-1.889-1.888h-3.119v12.402zm-3.262 2.429h-10.292c-.317 0-.576-.258-.576-.576 0-.317.259-.576.576-.576h10.293c.318 0 .576.259.576.576 0 .318-.258.576-.577.576zm0-3.707h-10.292c-.317 0-.576-.258-.576-.576 0-.317.259-.575.576-.575h10.293c.318 0 .576.258.576.575 0 .318-.258.576-.577.576zm0-3.708h-10.292c-.317 0-.576-.258-.576-.576s.259-.576.576-.576h10.293c.318 0 .576.258.576.576s-.258.576-.577.576zm0-3.708h-10.292c-.317 0-.576-.258-.576-.576 0-.317.259-.575.576-.575h10.293c.318 0 .576.258.576.575 0 .318-.258.576-.577.576zm0-3.707h-10.292c-.317 0-.576-.258-.576-.576 0-.317.259-.575.576-.575h10.293c.318 0 .576.258.576.575 0 .318-.258.576-.577.576zM39.621 247.857c0 .527-.428.955-.955.955s-.957-.428-.957-.955.43-.955.957-.955.955.428.955.955"/><path d="M17.783 280.188s-.125 3.655 0 3.905c.213.427 1.062.828 1.688.953s18.938-.022 19.312-.022 1.75-.355 2-.918c.25-.563 0-3.918 0-3.918h-23z"/></g><g fill="#fff"><path d="M39.395 445h-34.172c-1.677 0-3.041-1.363-3.041-3.039v-45.301c0-1.678 1.363-3.041 3.041-3.041h34.172c1.676 0 3.041 1.363 3.041 3.041v5.02c0 .129-.043.254-.123.354l-3.08 3.946c-.109.141-.277.223-.455.223h-25.592c-.797 0-1.446.646-1.446 1.443v28.521c0 .797.648 1.445 1.446 1.445l28.674-.002c.152 0 .299.062.406.17.108.107.17.255.17.406v3.771c0 1.68-1.366 3.043-3.041 3.043zm-36.061-43.129v40.09c0 1.04.848 1.887 1.889 1.887h34.172c1.041 0 1.889-.847 1.889-1.887v-3.193h-28.098c-1.434 0-2.599-1.164-2.599-2.598v-28.521c0-1.433 1.166-2.598 2.599-2.598h25.312l2.483-3.18h-37.647zm0-1.152h37.949v-4.059c0-1.041-.848-1.889-1.889-1.889h-34.171c-1.041 0-1.889.848-1.889 1.889v4.059zm35.283 34.75h-18.404c-1.676 0-3.04-1.363-3.04-3.039v-17.175l-2.511-3.435c-.128-.174-.146-.406-.049-.6.098-.195.297-.316.514-.316h25.955c.318 0 .576.259.576.576v3.91h3.119c1.677 0 3.041 1.362 3.041 3.039v8.627c0 1.676-1.363 3.039-3.041 3.039h-3.119v2.331c0 1.678-1.364 3.043-3.041 3.043zm-22.354-23.41l1.951 2.668c.072.101.111.219.111.34v17.363c0 1.041.847 1.887 1.888 1.887h18.404c1.042 0 1.889-.846 1.889-1.887v-20.371h-24.243zm25.395 16.884h3.119c1.041 0 1.889-.846 1.889-1.887v-8.627c0-1.041-.848-1.889-1.889-1.889h-3.119v12.403zm-3.262 2.43h-10.292c-.317 0-.576-.258-.576-.576s.259-.576.576-.576h10.293c.318 0 .576.258.576.576s-.258.576-.577.576zm0-3.707h-10.292c-.317 0-.576-.258-.576-.576s.259-.576.576-.576h10.293c.318 0 .576.258.576.576s-.258.576-.577.576zm0-3.709h-10.292c-.317 0-.576-.258-.576-.576s.259-.576.576-.576h10.293c.318 0 .576.258.576.576s-.258.576-.577.576zm0-3.707h-10.292c-.317 0-.576-.258-.576-.576s.259-.576.576-.576h10.293c.318 0 .576.258.576.576s-.258.576-.577.576zm0-3.707h-10.292c-.317 0-.576-.258-.576-.576s.259-.576.576-.576h10.293c.318 0 .576.258.576.576s-.258.576-.577.576zM39.621 397.857c0 .527-.428.955-.955.955s-.957-.428-.957-.955.43-.955.957-.955.955.428.955.955"/><path d="M17.783 426.188s-.125 7.656 0 7.906c.213.426 1.062.828 1.688.953s18.938-.023 19.312-.023 1.75-.354 2-.918c.25-.562 0-7.918 0-7.918h-23z"/></g><g fill="#fff"><path d="M39.395 595h-34.172c-1.677 0-3.041-1.363-3.041-3.039v-45.301c0-1.678 1.363-3.042 3.041-3.042h34.172c1.676 0 3.041 1.364 3.041 3.042v5.02c0 .129-.043.254-.123.354l-3.08 3.946c-.109.141-.277.223-.455.223h-25.592c-.797 0-1.446.646-1.446 1.443v28.521c0 .797.648 1.443 1.446 1.443h28.674c.152 0 .299.062.406.17.108.107.17.255.17.406v3.771c0 1.68-1.366 3.043-3.041 3.043zm-36.061-43.129v40.09c0 1.04.848 1.887 1.889 1.887h34.172c1.041 0 1.889-.847 1.889-1.887v-3.193h-28.098c-1.434 0-2.599-1.164-2.599-2.598v-28.521c0-1.433 1.166-2.598 2.599-2.598h25.312l2.481-3.18h-37.645zm0-1.152h37.949v-4.059c0-1.042-.848-1.891-1.889-1.891h-34.171c-1.041 0-1.889.849-1.889 1.891v4.059zm35.283 34.75h-18.404c-1.676 0-3.04-1.363-3.04-3.039v-17.175l-2.511-3.435c-.128-.174-.146-.406-.049-.602.098-.193.297-.314.514-.314h25.955c.318 0 .576.259.576.576v3.91h3.119c1.677 0 3.041 1.362 3.041 3.039v8.627c0 1.676-1.363 3.039-3.041 3.039h-3.119v2.331c0 1.678-1.364 3.043-3.041 3.043zm-22.354-23.41l1.951 2.668c.072.101.111.219.111.34v17.363c0 1.041.847 1.887 1.888 1.887h18.404c1.042 0 1.889-.846 1.889-1.887v-20.371h-24.243zm25.395 16.884h3.119c1.041 0 1.889-.846 1.889-1.887v-8.627c0-1.041-.848-1.889-1.889-1.889h-3.119v12.403zm-3.262 2.43h-10.292c-.317 0-.576-.258-.576-.576s.259-.576.576-.576h10.293c.318 0 .576.258.576.576s-.258.576-.577.576zm0-3.707h-10.292c-.317 0-.576-.258-.576-.576s.259-.576.576-.576h10.293c.318 0 .576.258.576.576s-.258.576-.577.576zm0-3.709h-10.292c-.317 0-.576-.258-.576-.576s.259-.576.576-.576h10.293c.318 0 .576.258.576.576s-.258.576-.577.576zm0-3.707h-10.292c-.317 0-.576-.258-.576-.576s.259-.576.576-.576h10.293c.318 0 .576.258.576.576s-.258.576-.577.576zm0-3.707h-10.292c-.317 0-.576-.258-.576-.576s.259-.576.576-.576h10.293c.318 0 .576.258.576.576s-.258.576-.577.576zM39.621 547.857c0 .526-.428.955-.955.955s-.957-.43-.957-.955c0-.527.43-.955.957-.955s.955.428.955.955"/><path d="M17.783 571.188s-.125 12.656 0 12.906c.213.426 1.062.828 1.688.953s18.938-.023 19.312-.023 1.75-.354 2-.918c.25-.562 0-12.918 0-12.918h-23z"/></g><g fill="#fff"><path d="M39.395 745h-34.172c-1.677 0-3.041-1.364-3.041-3.041v-45.301c0-1.677 1.363-3.041 3.041-3.041h34.172c1.676 0 3.041 1.364 3.041 3.041v5.02c0 .129-.043.253-.123.354l-3.08 3.946c-.109.141-.277.223-.455.223h-25.592c-.797 0-1.446.646-1.446 1.442v28.524c0 .797.648 1.444 1.446 1.444l28.674-.001c.152 0 .299.061.406.169.108.106.17.255.17.405v3.771c0 1.681-1.366 3.045-3.041 3.045zm-36.061-43.131v40.09c0 1.042.848 1.889 1.889 1.889h34.172c1.041 0 1.889-.847 1.889-1.889v-3.193l-28.098.001c-1.434 0-2.599-1.165-2.599-2.597v-28.522c0-1.434 1.166-2.599 2.599-2.599h25.312l2.481-3.18h-37.645zm0-1.152h37.949v-4.059c0-1.042-.848-1.891-1.889-1.891h-34.171c-1.041 0-1.889.849-1.889 1.891v4.059zm35.283 34.751h-18.404c-1.677 0-3.041-1.364-3.041-3.041v-17.173l-2.51-3.435c-.128-.177-.146-.407-.049-.603.098-.192.297-.313.514-.313h25.955c.318 0 .576.258.576.575v3.908h3.119c1.677 0 3.041 1.364 3.041 3.04v8.627c0 1.678-1.363 3.039-3.041 3.039h-3.119v2.332c0 1.68-1.364 3.044-3.041 3.044zm-22.356-23.412l1.952 2.67c.072.101.111.22.111.342v17.359c0 1.042.847 1.891 1.889 1.891h18.404c1.042 0 1.889-.849 1.889-1.891v-20.371h-24.245zm25.397 16.886h3.119c1.041 0 1.889-.849 1.889-1.889v-8.627c0-1.041-.848-1.888-1.889-1.888h-3.119v12.404zm-3.262 2.43h-10.292c-.317 0-.576-.258-.576-.576 0-.316.259-.576.576-.576h10.293c.318 0 .576.26.576.576 0 .318-.258.576-.577.576zm0-3.708h-10.292c-.317 0-.576-.258-.576-.576s.259-.576.576-.576h10.293c.318 0 .576.258.576.576s-.258.576-.577.576zm0-3.709h-10.292c-.317 0-.576-.258-.576-.576s.259-.576.576-.576h10.293c.318 0 .576.258.576.576s-.258.576-.577.576zm0-3.707h-10.292c-.317 0-.576-.258-.576-.576s.259-.576.576-.576h10.293c.318 0 .576.258.576.576s-.258.576-.577.576zm0-3.707h-10.292c-.317 0-.576-.258-.576-.576 0-.316.259-.576.576-.576h10.293c.318 0 .576.26.576.576 0 .318-.258.576-.577.576zM39.621 697.856c0 .525-.428.953-.955.953s-.957-.429-.957-.953c0-.526.43-.955.957-.955s.955.429.955.955"/><path d="M17.783 715.186s-.125 18.656 0 18.906c.213.426 1.062.828 1.688.953s18.938-.021 19.312-.021 1.75-.354 2-.921c.25-.562 0-18.918 0-18.918h-23z"/></g></svg>