<svg xmlns="http://www.w3.org/2000/svg" width="50" height="750" viewBox="0 0 50 750"><path fill="none" d="M0 150h50v150h-50zM0 300h50v150h-50zM0 450h50v150h-50zM0 0h50v150h-50zM0 600h50v150h-50z"/><g fill="#fff"><path d="M24.433 132.715c-.318 0-.576-.258-.576-.575v-32.746c0-.317.258-.576.576-.576s.576.259.576.576v32.746c-.002.318-.259.575-.576.575zm0-36.965c-.318 0-.576-.258-.576-.576v-5.112c0-.317.258-.576.576-.576s.576.259.576.576v5.112c-.002.318-.259.576-.576.576zM35.018 145h-21.071c-1.677 0-3.042-1.365-3.042-3.042v-32.104l-5.021-7.312c-.121-.176-.135-.405-.035-.594.1-.189.296-.308.51-.308h31.12c.318 0 .576.258.576.575v7.728h3.121c1.676 0 3.04 1.365 3.04 3.041v14.386c0 1.676-1.364 3.04-3.04 3.04h-3.119v11.607c.002 2.983-2.287 2.983-3.039 2.983zm-27.563-42.207l4.502 6.558c.066.096.102.209.102.325v32.282c0 1.042.847 1.891 1.889 1.891h21.069c1.225 0 1.889-.293 1.889-1.83v-39.226h-29.451zm30.604 26.466h3.119c1.041 0 1.889-.847 1.889-1.888v-14.386c0-1.041-.848-1.889-1.889-1.889h-3.119v18.163zm-2.39 6.795h-22.475c-.318 0-.576-.258-.576-.576v-.873c0-1.678 1.227-3.041 2.735-3.041h18.154c1.509 0 2.736 1.363 2.736 3.041v.873c.002.318-.259.576-.574.576zm-21.898-1.153h21.321v-.297c0-1.043-.71-1.89-1.584-1.89h-18.154c-.873 0-1.583.847-1.583 1.89v.297zm23.709-34.931h-25.997c-.318 0-.576-.258-.576-.576v-1.754c0-1.678 1.364-3.043 3.041-3.043h21.069c1.676 0 3.041 1.365 3.041 3.043v1.754c.001.318-.259.576-.578.576zm-25.42-1.153h24.846v-1.177c0-1.043-.846-1.89-1.889-1.89h-21.07c-1.041 0-1.888.847-1.888 1.89l.001 1.177zM15.72 138.69c0 .678-.548 1.226-1.224 1.226-.676 0-1.224-.548-1.224-1.226 0-.676.548-1.224 1.224-1.224.675.001 1.224.549 1.224 1.224M20.688 138.69c0 .678-.548 1.226-1.224 1.226-.676 0-1.224-.548-1.224-1.226 0-.676.548-1.224 1.224-1.224.677.001 1.224.549 1.224 1.224M25.656 138.69c0 .678-.548 1.226-1.224 1.226-.676 0-1.224-.548-1.224-1.226 0-.676.548-1.224 1.224-1.224.676.001 1.224.549 1.224 1.224"/><path d="M24.433 90.442c-1.949 0-3.534-1.586-3.534-3.534 0-1.949 1.585-3.534 3.534-3.534 1.948 0 3.533 1.585 3.533 3.534-.001 1.948-1.586 3.534-3.533 3.534zm0-5.916c-1.313 0-2.382 1.067-2.382 2.382 0 1.313 1.068 2.382 2.382 2.382 1.313 0 2.381-1.068 2.381-2.382-.002-1.314-1.068-2.382-2.381-2.382zM30.624 138.69c0 .678-.549 1.226-1.226 1.226-.676 0-1.226-.548-1.226-1.226 0-.676.55-1.224 1.226-1.224.677 0 1.226.549 1.226 1.224M18.205 141.788c0 .677-.548 1.225-1.224 1.225-.676 0-1.224-.548-1.224-1.225 0-.678.548-1.225 1.224-1.225.675 0 1.224.547 1.224 1.225M23.171 141.788c0 .677-.548 1.225-1.224 1.225-.676 0-1.224-.548-1.224-1.225 0-.678.548-1.225 1.224-1.225.678 0 1.224.547 1.224 1.225M28.141 141.788c0 .677-.549 1.225-1.225 1.225-.678 0-1.225-.548-1.225-1.225 0-.678.547-1.225 1.225-1.225.676 0 1.225.547 1.225 1.225M33.107 141.788c0 .677-.549 1.225-1.227 1.225-.676 0-1.225-.548-1.225-1.225 0-.678.549-1.225 1.225-1.225.681 0 1.227.547 1.227 1.225M35.591 138.69c0 .678-.548 1.226-1.225 1.226s-1.224-.548-1.224-1.226c0-.676.547-1.224 1.224-1.224.678.001 1.225.549 1.225 1.224"/></g><g fill="#fff"><path d="M35.018 295h-21.071c-1.677 0-3.042-1.365-3.042-3.042v-32.104l-5.021-7.312c-.121-.176-.135-.405-.035-.594.1-.189.296-.308.51-.308h31.12c.318 0 .576.258.576.575v7.728h3.121c1.676 0 3.04 1.365 3.04 3.041v14.386c0 1.676-1.364 3.04-3.04 3.04h-3.119v11.607c.002 2.983-2.287 2.983-3.039 2.983zm-27.563-42.207l4.502 6.558c.066.096.102.209.102.325v32.282c0 1.042.847 1.891 1.889 1.891h21.069c1.225 0 1.889-.293 1.889-1.83v-39.226h-29.451zm30.604 26.466h3.119c1.041 0 1.889-.847 1.889-1.888v-14.386c0-1.041-.848-1.889-1.889-1.889h-3.119v18.163zM15.72 288.69c0 .678-.548 1.226-1.224 1.226-.676 0-1.224-.548-1.224-1.226 0-.676.548-1.224 1.224-1.224.675.001 1.224.549 1.224 1.224M20.688 288.69c0 .678-.548 1.226-1.224 1.226-.676 0-1.224-.548-1.224-1.226 0-.676.548-1.224 1.224-1.224.677.001 1.224.549 1.224 1.224M25.656 288.69c0 .678-.548 1.226-1.224 1.226-.676 0-1.224-.548-1.224-1.226 0-.676.548-1.224 1.224-1.224.676.001 1.224.549 1.224 1.224M30.624 288.69c0 .678-.549 1.226-1.226 1.226-.676 0-1.226-.548-1.226-1.226 0-.676.55-1.224 1.226-1.224.677 0 1.226.549 1.226 1.224M18.205 291.788c0 .677-.548 1.225-1.224 1.225-.676 0-1.224-.548-1.224-1.225 0-.678.548-1.225 1.224-1.225.675 0 1.224.547 1.224 1.225M23.171 291.788c0 .677-.548 1.225-1.224 1.225-.676 0-1.224-.548-1.224-1.225 0-.678.548-1.225 1.224-1.225.678 0 1.224.547 1.224 1.225M28.141 291.788c0 .677-.549 1.225-1.225 1.225-.678 0-1.225-.548-1.225-1.225 0-.678.547-1.225 1.225-1.225.676 0 1.225.547 1.225 1.225M33.107 291.788c0 .677-.549 1.225-1.227 1.225-.676 0-1.225-.548-1.225-1.225 0-.678.549-1.225 1.225-1.225.681 0 1.227.547 1.227 1.225M35.591 288.69c0 .678-.548 1.226-1.225 1.226s-1.224-.548-1.224-1.226c0-.676.547-1.224 1.224-1.224.678.001 1.225.549 1.225 1.224M15.72 281.69c0 .678-.548 1.226-1.224 1.226-.676 0-1.224-.548-1.224-1.226 0-.676.548-1.224 1.224-1.224.675.001 1.224.549 1.224 1.224M20.688 281.69c0 .678-.548 1.226-1.224 1.226-.676 0-1.224-.548-1.224-1.226 0-.676.548-1.224 1.224-1.224.677.001 1.224.549 1.224 1.224M25.656 281.69c0 .678-.548 1.226-1.224 1.226-.676 0-1.224-.548-1.224-1.226 0-.676.548-1.224 1.224-1.224.676.001 1.224.549 1.224 1.224M30.624 281.69c0 .678-.549 1.226-1.226 1.226-.676 0-1.226-.548-1.226-1.226 0-.676.55-1.224 1.226-1.224.677 0 1.226.549 1.226 1.224M18.205 284.788c0 .677-.548 1.225-1.224 1.225-.676 0-1.224-.548-1.224-1.225 0-.678.548-1.225 1.224-1.225.675 0 1.224.547 1.224 1.225M23.171 284.788c0 .677-.548 1.225-1.224 1.225-.676 0-1.224-.548-1.224-1.225 0-.678.548-1.225 1.224-1.225.678 0 1.224.547 1.224 1.225M28.141 284.788c0 .677-.549 1.225-1.225 1.225-.678 0-1.225-.548-1.225-1.225 0-.678.547-1.225 1.225-1.225.676 0 1.225.547 1.225 1.225M33.107 284.788c0 .677-.549 1.225-1.227 1.225-.676 0-1.225-.548-1.225-1.225 0-.678.549-1.225 1.225-1.225.681 0 1.227.547 1.227 1.225M35.591 281.69c0 .678-.548 1.226-1.225 1.226s-1.224-.548-1.224-1.226c0-.676.547-1.224 1.224-1.224.678.001 1.225.549 1.225 1.224M15.72 274.69c0 .678-.548 1.226-1.224 1.226-.676 0-1.224-.548-1.224-1.226 0-.676.548-1.224 1.224-1.224.675.001 1.224.549 1.224 1.224M20.688 274.69c0 .678-.548 1.226-1.224 1.226-.676 0-1.224-.548-1.224-1.226 0-.676.548-1.224 1.224-1.224.677.001 1.224.549 1.224 1.224M25.656 274.69c0 .678-.548 1.226-1.224 1.226-.676 0-1.224-.548-1.224-1.226 0-.676.548-1.224 1.224-1.224.676.001 1.224.549 1.224 1.224M30.624 274.69c0 .678-.549 1.226-1.226 1.226-.676 0-1.226-.548-1.226-1.226 0-.676.55-1.224 1.226-1.224.677 0 1.226.549 1.226 1.224M18.205 277.788c0 .677-.548 1.225-1.224 1.225-.676 0-1.224-.548-1.224-1.225 0-.678.548-1.225 1.224-1.225.675 0 1.224.547 1.224 1.225M23.171 277.788c0 .677-.548 1.225-1.224 1.225-.676 0-1.224-.548-1.224-1.225 0-.678.548-1.225 1.224-1.225.678 0 1.224.547 1.224 1.225M28.141 277.788c0 .677-.549 1.225-1.225 1.225-.678 0-1.225-.548-1.225-1.225 0-.678.547-1.225 1.225-1.225.676 0 1.225.547 1.225 1.225M33.107 277.788c0 .677-.549 1.225-1.227 1.225-.676 0-1.225-.548-1.225-1.225 0-.678.549-1.225 1.225-1.225.681 0 1.227.547 1.227 1.225M18.205 270.788c0 .677-.548 1.225-1.224 1.225-.676 0-1.224-.548-1.224-1.225 0-.678.548-1.225 1.224-1.225.675 0 1.224.547 1.224 1.225M23.171 270.788c0 .677-.548 1.225-1.224 1.225-.676 0-1.224-.548-1.224-1.225 0-.678.548-1.225 1.224-1.225.678 0 1.224.547 1.224 1.225M28.141 270.788c0 .677-.549 1.225-1.225 1.225-.678 0-1.225-.548-1.225-1.225 0-.678.547-1.225 1.225-1.225.676 0 1.225.547 1.225 1.225M33.107 270.788c0 .677-.549 1.225-1.227 1.225-.676 0-1.225-.548-1.225-1.225 0-.678.549-1.225 1.225-1.225.681 0 1.227.547 1.227 1.225M35.591 274.69c0 .678-.548 1.226-1.225 1.226s-1.224-.548-1.224-1.226c0-.676.547-1.224 1.224-1.224.678.001 1.225.549 1.225 1.224"/><path d="M24.433 263.715c-.318 0-.576-.258-.576-.575v-13.746c0-.317.258-.576.576-.576s.576.259.576.576v13.746c-.002.318-.259.575-.576.575zm0-17.965c-.318 0-.576-.258-.576-.576v-19.112c0-.317.258-.576.576-.576s.576.259.576.576v19.112c-.002.318-.259.576-.576.576zM24.433 226.442c-1.949 0-3.534-1.586-3.534-3.534 0-1.949 1.585-3.534 3.534-3.534 1.948 0 3.533 1.585 3.533 3.534-.001 1.948-1.586 3.534-3.533 3.534zm0-5.916c-1.313 0-2.382 1.067-2.382 2.382 0 1.313 1.068 2.382 2.382 2.382 1.313 0 2.381-1.068 2.381-2.382-.002-1.314-1.068-2.382-2.381-2.382zM35.669 267.054h-22.475c-.318 0-.576-.258-.576-.576v-.873c0-1.678 1.227-3.041 2.735-3.041h18.154c1.509 0 2.736 1.363 2.736 3.041v.873c.002.318-.259.576-.574.576zm-21.898-1.153h21.321v-.297c0-1.043-.71-1.89-1.584-1.89h-18.154c-.873 0-1.583.847-1.583 1.89v.297zM37.48 249.97h-25.997c-.318 0-.576-.258-.576-.576v-1.754c0-1.678 1.364-3.043 3.041-3.043h21.069c1.676 0 3.041 1.365 3.041 3.043v1.754c.001.318-.259.576-.578.576zm-25.42-1.153h24.846v-1.178c0-1.043-.846-1.89-1.889-1.89h-21.07c-1.041 0-1.888.847-1.888 1.89l.001 1.178z"/></g><g fill="#fff"><path d="M22.282 413.188h-11v5.812-.146c0-1.356 1.779-2.664 2.972-2.664h8.028v-3.0020000000000002zM26.282 413.188h11v5.812-.146c0-1.356-.625-2.664-1.817-2.664h-9.183v-3.0020000000000002zM35.016 445h-21.07c-1.677 0-3.041-1.364-3.041-3.041v-32.104l-5.021-7.312c-.121-.176-.135-.403-.035-.594.1-.191.296-.312.51-.312h31.121c.317 0 .576.262.576.576v7.729h3.12c1.677 0 3.039 1.361 3.039 3.041v14.385c0 1.677-1.362 3.041-3.039 3.041h-3.12v11.604c.001 2.987-2.288 2.987-3.04 2.987zm-27.563-42.207l4.502 6.559c.066.1.102.209.102.325v32.282c0 1.042.847 1.889 1.889 1.889h21.07c1.226 0 1.889-.291 1.889-1.828v-39.227h-29.452zm30.604 26.467h3.121c1.041 0 1.887-.847 1.887-1.889v-14.385c0-1.043-.846-1.891-1.887-1.891h-3.121v18.165zM15.807 438.691c0 .678-.548 1.225-1.224 1.225s-1.224-.547-1.224-1.225.548-1.229 1.224-1.229c.676.005 1.224.554 1.224 1.229M20.775 438.691c0 .678-.548 1.225-1.224 1.225-.676 0-1.224-.547-1.224-1.225s.548-1.229 1.224-1.229c.675.005 1.224.554 1.224 1.229M25.743 438.691c0 .678-.548 1.225-1.224 1.225-.676 0-1.224-.547-1.224-1.225s.548-1.229 1.224-1.229c.676.005 1.224.554 1.224 1.229M30.711 438.691c0 .678-.548 1.225-1.225 1.225-.676 0-1.223-.547-1.223-1.225s.547-1.229 1.223-1.229c.676.005 1.225.554 1.225 1.229M18.29 441.789c0 .676-.548 1.225-1.224 1.225-.676 0-1.224-.549-1.224-1.225 0-.678.548-1.227 1.224-1.227.677 0 1.224.549 1.224 1.227M23.259 441.789c0 .676-.548 1.225-1.224 1.225-.676 0-1.224-.549-1.224-1.225 0-.678.548-1.227 1.224-1.227.676 0 1.224.549 1.224 1.227M28.227 441.789c0 .676-.549 1.225-1.227 1.225-.676 0-1.225-.549-1.225-1.225 0-.678.549-1.227 1.225-1.227.68 0 1.227.549 1.227 1.227M33.195 441.789c0 .676-.549 1.225-1.225 1.225-.679 0-1.227-.549-1.227-1.225 0-.678.548-1.227 1.227-1.227.676 0 1.225.549 1.225 1.227M35.68 438.691c0 .678-.549 1.225-1.225 1.225s-1.225-.547-1.225-1.225.549-1.229 1.225-1.229c.676.005 1.225.554 1.225 1.229M15.807 431.691c0 .678-.548 1.225-1.224 1.225s-1.224-.547-1.224-1.225.548-1.229 1.224-1.229c.676.005 1.224.554 1.224 1.229M20.775 431.691c0 .678-.548 1.225-1.224 1.225-.676 0-1.224-.547-1.224-1.225s.548-1.229 1.224-1.229c.675.005 1.224.554 1.224 1.229M25.743 431.691c0 .678-.548 1.225-1.224 1.225-.676 0-1.224-.547-1.224-1.225s.548-1.229 1.224-1.229c.676.005 1.224.554 1.224 1.229M30.711 431.691c0 .678-.548 1.225-1.225 1.225-.676 0-1.223-.547-1.223-1.225s.547-1.229 1.223-1.229c.676.005 1.225.554 1.225 1.229M18.29 434.789c0 .676-.548 1.225-1.224 1.225-.676 0-1.224-.549-1.224-1.225 0-.678.548-1.227 1.224-1.227.677 0 1.224.549 1.224 1.227M23.259 434.789c0 .676-.548 1.225-1.224 1.225-.676 0-1.224-.549-1.224-1.225 0-.678.548-1.227 1.224-1.227.676 0 1.224.549 1.224 1.227M28.227 434.789c0 .676-.549 1.225-1.227 1.225-.676 0-1.225-.549-1.225-1.225 0-.678.549-1.227 1.225-1.227.68 0 1.227.549 1.227 1.227M33.195 434.789c0 .676-.549 1.225-1.225 1.225-.679 0-1.227-.549-1.227-1.225 0-.678.548-1.227 1.227-1.227.676 0 1.225.549 1.225 1.227M35.68 431.691c0 .678-.549 1.225-1.225 1.225s-1.225-.547-1.225-1.225.549-1.229 1.225-1.229c.676.005 1.225.554 1.225 1.229M15.807 424.691c0 .678-.548 1.225-1.224 1.225s-1.224-.547-1.224-1.225.548-1.229 1.224-1.229c.676.005 1.224.554 1.224 1.229M20.775 424.691c0 .678-.548 1.225-1.224 1.225-.676 0-1.224-.547-1.224-1.225s.548-1.229 1.224-1.229c.675.005 1.224.554 1.224 1.229M25.743 424.691c0 .678-.548 1.225-1.224 1.225-.676 0-1.224-.547-1.224-1.225s.548-1.229 1.224-1.229c.676.005 1.224.554 1.224 1.229M30.711 424.691c0 .678-.548 1.225-1.225 1.225-.676 0-1.223-.547-1.223-1.225s.547-1.229 1.223-1.229c.676.005 1.225.554 1.225 1.229M18.29 427.789c0 .676-.548 1.225-1.224 1.225-.676 0-1.224-.549-1.224-1.225 0-.678.548-1.227 1.224-1.227.677 0 1.224.549 1.224 1.227M23.259 427.789c0 .676-.548 1.225-1.224 1.225-.676 0-1.224-.549-1.224-1.225 0-.678.548-1.227 1.224-1.227.676 0 1.224.549 1.224 1.227M28.227 427.789c0 .676-.549 1.225-1.227 1.225-.676 0-1.225-.549-1.225-1.225 0-.678.549-1.227 1.225-1.227.68 0 1.227.549 1.227 1.227M33.195 427.789c0 .676-.549 1.225-1.225 1.225-.679 0-1.227-.549-1.227-1.225 0-.678.548-1.227 1.227-1.227.676 0 1.225.549 1.225 1.227M35.68 424.691c0 .678-.549 1.225-1.225 1.225s-1.225-.547-1.225-1.225.549-1.229 1.225-1.229c.676.005 1.225.554 1.225 1.229"/><path d="M24.431 418.716c-.318 0-.576-.258-.576-.575v-18.743c0-.318.258-.576.576-.576.318 0 .576.258.576.576v18.743c0 .317-.259.575-.576.575zm0-22.966c-.318 0-.576-.258-.576-.576v-15.109c0-.317.258-.575.576-.575.318 0 .576.258.576.575v15.109c0 .318-.259.576-.576.576zM24.431 380.441c-1.949 0-3.534-1.586-3.534-3.533 0-1.949 1.585-3.534 3.534-3.534 1.949 0 3.534 1.585 3.534 3.534 0 1.947-1.585 3.533-3.534 3.533zm0-5.916c-1.313 0-2.382 1.068-2.382 2.384s1.068 2.382 2.382 2.382 2.381-1.066 2.381-2.382-1.068-2.384-2.381-2.384zM35.668 422.055h-22.474c-.318 0-.576-.258-.576-.576v-.871c0-1.68 1.227-3.041 2.735-3.041h18.155c1.51 0 2.736 1.361 2.736 3.041v.871c0 .318-.258.576-.576.576zm-21.899-1.153h21.323v-.301c0-1.039-.711-1.891-1.584-1.891h-18.156c-.873 0-1.583.852-1.583 1.891v.301zM37.48 399.972h-25.998c-.318 0-.576-.259-.576-.575v-1.757c0-1.677 1.364-3.04 3.04-3.04h21.07c1.678 0 3.043 1.363 3.043 3.04v1.757c-.002.316-.258.575-.579.575zm-25.422-1.155h24.846v-1.18c0-1.043-.846-1.891-1.889-1.891h-21.07c-1.041 0-1.888.848-1.888 1.891v1.18z"/></g><g fill="#fff"><path d="M22.282 563.188h-11v19.666-7c0-1.356 1.779-2.666 2.972-2.666h8.028v-10zM26.282 563.188h11v19.666-7c0-1.356-.625-2.666-1.817-2.666h-9.183v-10zM35.016 595h-21.07c-1.677 0-3.041-1.364-3.041-3.041v-32.104l-5.021-7.312c-.121-.177-.135-.404-.035-.595.1-.191.296-.31.51-.31h31.121c.317 0 .576.26.576.573v7.729h3.12c1.677 0 3.039 1.361 3.039 3.041v14.386c0 1.677-1.362 3.041-3.039 3.041h-3.12v11.604c.001 2.988-2.288 2.988-3.04 2.988zm-27.563-42.207l4.502 6.557c.066.098.102.211.102.326v32.283c0 1.042.847 1.889 1.889 1.889h21.07c1.226 0 1.889-.291 1.889-1.828v-39.227h-29.452zm30.604 26.467h3.121c1.041 0 1.887-.847 1.887-1.889v-14.385c0-1.043-.846-1.891-1.887-1.891h-3.121v18.165zM15.807 588.691c0 .678-.548 1.225-1.224 1.225s-1.224-.547-1.224-1.225.548-1.229 1.224-1.229c.676.005 1.224.554 1.224 1.229M20.775 588.691c0 .678-.548 1.225-1.224 1.225-.676 0-1.224-.547-1.224-1.225s.548-1.229 1.224-1.229c.675.005 1.224.554 1.224 1.229M25.743 588.691c0 .678-.548 1.225-1.224 1.225-.676 0-1.224-.547-1.224-1.225s.548-1.229 1.224-1.229c.676.005 1.224.554 1.224 1.229M30.711 588.691c0 .678-.548 1.225-1.225 1.225-.676 0-1.223-.547-1.223-1.225s.547-1.229 1.223-1.229c.676.005 1.225.554 1.225 1.229M18.29 591.789c0 .676-.548 1.225-1.224 1.225-.676 0-1.224-.549-1.224-1.225 0-.678.548-1.227 1.224-1.227.677 0 1.224.549 1.224 1.227M23.259 591.789c0 .676-.548 1.225-1.224 1.225-.676 0-1.224-.549-1.224-1.225 0-.678.548-1.227 1.224-1.227.676 0 1.224.549 1.224 1.227M28.227 591.789c0 .676-.549 1.225-1.227 1.225-.676 0-1.225-.549-1.225-1.225 0-.678.549-1.227 1.225-1.227.68 0 1.227.549 1.227 1.227M33.195 591.789c0 .676-.549 1.225-1.225 1.225-.679 0-1.227-.549-1.227-1.225 0-.678.548-1.227 1.227-1.227.676 0 1.225.549 1.225 1.227M35.68 588.691c0 .678-.549 1.225-1.225 1.225s-1.225-.547-1.225-1.225.549-1.229 1.225-1.229c.676.005 1.225.554 1.225 1.229M15.807 581.691c0 .678-.548 1.225-1.224 1.225s-1.224-.547-1.224-1.225.548-1.229 1.224-1.229c.676.005 1.224.554 1.224 1.229M20.775 581.691c0 .678-.548 1.225-1.224 1.225-.676 0-1.224-.547-1.224-1.225s.548-1.229 1.224-1.229c.675.005 1.224.554 1.224 1.229M25.743 581.691c0 .678-.548 1.225-1.224 1.225-.676 0-1.224-.547-1.224-1.225s.548-1.229 1.224-1.229c.676.005 1.224.554 1.224 1.229M30.711 581.691c0 .678-.548 1.225-1.225 1.225-.676 0-1.223-.547-1.223-1.225s.547-1.229 1.223-1.229c.676.005 1.225.554 1.225 1.229M18.29 584.789c0 .676-.548 1.225-1.224 1.225-.676 0-1.224-.549-1.224-1.225 0-.678.548-1.227 1.224-1.227.677 0 1.224.549 1.224 1.227M23.259 584.789c0 .676-.548 1.225-1.224 1.225-.676 0-1.224-.549-1.224-1.225 0-.678.548-1.227 1.224-1.227.676 0 1.224.549 1.224 1.227M28.227 584.789c0 .676-.549 1.225-1.227 1.225-.676 0-1.225-.549-1.225-1.225 0-.678.549-1.227 1.225-1.227.68 0 1.227.549 1.227 1.227M33.195 584.789c0 .676-.549 1.225-1.225 1.225-.679 0-1.227-.549-1.227-1.225 0-.678.548-1.227 1.227-1.227.676 0 1.225.549 1.225 1.227M35.68 581.691c0 .678-.549 1.225-1.225 1.225s-1.225-.547-1.225-1.225.549-1.229 1.225-1.229c.676.005 1.225.554 1.225 1.229"/><path d="M24.431 575.716c-.318 0-.576-.258-.576-.575v-25.746c0-.313.258-.574.576-.574.318 0 .576.261.576.574v25.746c0 .317-.259.575-.576.575zm0-29.966c-.318 0-.576-.258-.576-.576v-10.111c0-.313.258-.574.576-.574.318 0 .576.261.576.574v10.111c0 .318-.259.576-.576.576zM24.431 535.443c-1.949 0-3.534-1.586-3.534-3.533 0-1.949 1.585-3.535 3.534-3.535 1.949 0 3.534 1.586 3.534 3.535 0 1.947-1.585 3.533-3.534 3.533zm0-5.916c-1.313 0-2.382 1.066-2.382 2.383 0 1.312 1.068 2.381 2.382 2.381s2.381-1.068 2.381-2.381c0-1.314-1.068-2.383-2.381-2.383zM35.668 579.055h-22.474c-.318 0-.576-.258-.576-.576v-.871c0-1.68 1.227-3.041 2.735-3.041h18.155c1.51 0 2.736 1.361 2.736 3.041v.871c0 .318-.258.576-.576.576zm-21.899-1.153h21.323v-.301c0-1.041-.711-1.891-1.584-1.891h-18.156c-.873 0-1.583.85-1.583 1.891v.301zM37.48 549.971h-25.998c-.318 0-.576-.258-.576-.576v-1.754c0-1.68 1.364-3.045 3.04-3.045h21.07c1.678 0 3.043 1.365 3.043 3.045v1.754c-.002.318-.258.576-.579.576zm-25.422-1.153h24.846v-1.182c0-1.043-.846-1.894-1.889-1.894h-21.07c-1.041 0-1.888.851-1.888 1.894v1.182z"/></g><g fill="#fff"><path d="M22.283 713.188h-11v33.666-14c0-1.357 1.778-2.668 2.972-2.668h8.028v-16.997999999999998zM26.282 713.188h11v33.666-14c0-1.357-.624-2.668-1.817-2.668h-9.183v-16.998zM35.016 745h-21.069c-1.677 0-3.041-1.364-3.041-3.041v-32.104l-5.021-7.312c-.121-.177-.135-.405-.035-.595.1-.19.296-.312.51-.312h31.12c.317 0 .576.261.576.576v7.729h3.12c1.677 0 3.039 1.359 3.039 3.041v14.386c0 1.676-1.362 3.039-3.039 3.039h-3.12v11.604c.001 2.989-2.288 2.989-3.04 2.989zm-27.562-42.208l4.502 6.558c.066.101.102.21.102.326v32.283c0 1.042.847 1.889 1.889 1.889h21.069c1.227 0 1.889-.291 1.889-1.83v-39.226h-29.451zm30.603 26.467h3.121c1.041 0 1.887-.847 1.887-1.887v-14.386c0-1.042-.846-1.894-1.887-1.894h-3.121v18.167zM15.808 738.691c0 .676-.548 1.227-1.224 1.227-.677 0-1.225-.551-1.225-1.227 0-.681.548-1.229 1.225-1.229.677.005 1.224.554 1.224 1.229M20.775 738.691c0 .676-.548 1.227-1.225 1.227-.676 0-1.224-.551-1.224-1.227 0-.681.548-1.229 1.224-1.229.677.005 1.225.554 1.225 1.229M25.744 738.691c0 .676-.548 1.227-1.225 1.227-.676 0-1.225-.551-1.225-1.227 0-.681.549-1.229 1.225-1.229.677.005 1.225.554 1.225 1.229M30.711 738.691c0 .676-.547 1.227-1.225 1.227-.676 0-1.223-.551-1.223-1.227 0-.681.547-1.229 1.223-1.229.677.005 1.225.554 1.225 1.229M18.291 741.787c0 .68-.548 1.227-1.224 1.227-.676 0-1.224-.547-1.224-1.227 0-.676.548-1.229 1.224-1.229.677.004 1.224.553 1.224 1.229M23.261 741.787c0 .68-.549 1.227-1.225 1.227s-1.224-.547-1.224-1.227c0-.676.548-1.229 1.224-1.229.675.004 1.225.553 1.225 1.229M28.227 741.787c0 .68-.549 1.227-1.227 1.227-.677 0-1.227-.547-1.227-1.227 0-.676.55-1.229 1.227-1.229.68.004 1.227.553 1.227 1.229M33.195 741.787c0 .68-.549 1.227-1.225 1.227-.68 0-1.227-.547-1.227-1.227 0-.676.547-1.229 1.227-1.229.676.004 1.225.553 1.225 1.229M35.68 738.691c0 .676-.55 1.227-1.226 1.227-.677 0-1.224-.551-1.224-1.227 0-.681.547-1.229 1.224-1.229.676.005 1.226.554 1.226 1.229"/><path d="M24.432 732.715c-.318 0-.576-.258-.576-.576v-32.744c0-.313.258-.571.576-.571.318 0 .577.258.577.571v32.744c-.001.318-.26.576-.577.576zm0-36.966c-.318 0-.576-.258-.576-.576v-5.107c0-.316.258-.576.576-.576.318 0 .577.26.577.576v5.107c-.001.318-.26.576-.577.576zM24.432 690.442c-1.949 0-3.534-1.586-3.534-3.533 0-1.949 1.585-3.535 3.534-3.535 1.948 0 3.533 1.586 3.533 3.535 0 1.947-1.585 3.533-3.533 3.533zm0-5.916c-1.313 0-2.382 1.063-2.382 2.383 0 1.312 1.068 2.381 2.382 2.381s2.38-1.068 2.38-2.381c0-1.314-1.067-2.383-2.38-2.383zM35.668 736.055h-22.473c-.318 0-.576-.258-.576-.576v-.875c0-1.677 1.227-3.038 2.735-3.038h18.154c1.51 0 2.736 1.361 2.736 3.038v.875c0 .318-.258.576-.576.576zm-21.898-1.153h21.322v-.302c0-1.042-.711-1.889-1.584-1.889h-18.155c-.873 0-1.583.847-1.583 1.889v.302zM37.48 699.971h-25.998c-.318 0-.576-.258-.576-.576v-1.756c0-1.678 1.364-3.042 3.04-3.042h21.07c1.678 0 3.043 1.364 3.043 3.042v1.756c-.002.318-.258.576-.579.576zm-25.421-1.153h24.847v-1.185c0-1.042-.848-1.89-1.891-1.89h-21.068c-1.041 0-1.888.848-1.888 1.89v1.185z"/></g></svg>