<?xml version="1.0" encoding="utf-8"?>
<!-- Generator: Adobe Illustrator 16.0.4, SVG Export Plug-In . SVG Version: 6.00 Build 0)  -->
<!DOCTYPE svg PUBLIC "-//W3C//DTD SVG 1.1//EN" "http://www.w3.org/Graphics/SVG/1.1/DTD/svg11.dtd">
<svg version="1.1" id="Layer_1" xmlns="http://www.w3.org/2000/svg" xmlns:xlink="http://www.w3.org/1999/xlink" x="0px" y="0px"
	 width="50px" height="750px" viewBox="0 0 50 750" enable-background="new 0 0 50 750" xml:space="preserve">
<rect y="150" fill="none" width="50" height="150"/>
<rect y="300" fill="none" width="50" height="150"/>
<rect y="450" fill="none" width="50" height="150"/>
<rect fill="none" width="50" height="150"/>
<rect y="600" fill="none" width="50" height="150"/>
<g>
	<path fill="#FFFFFF" d="M31.206,145H15.721c-1.672,0-3.031-1.36-3.031-3.032v-20.892c0-0.317,0.257-0.574,0.574-0.574h20.4
		c0.316,0,0.574,0.257,0.574,0.574v3.899h3.111c1.674,0,3.032,1.36,3.032,3.032v8.603c0,1.671-1.358,3.033-3.032,3.033h-3.111v2.325
		C34.238,143.64,32.88,145,31.206,145z M13.839,121.65v20.317c0,1.039,0.846,1.883,1.882,1.883h15.485
		c1.039,0,1.884-0.844,1.884-1.883V121.65H13.839z M34.238,138.494h3.111c1.039,0,1.885-0.846,1.885-1.884v-8.603
		c0-1.038-0.846-1.883-1.885-1.883h-3.111V138.494z M36.734,118.716H10.19c-0.317,0-0.574-0.258-0.574-0.575v-4.187
		c0-0.317,0.257-0.574,0.574-0.574h3.094L9.632,96.556c-0.037-0.17,0.005-0.348,0.114-0.483c0.109-0.134,0.272-0.214,0.446-0.214
		h26.544c0.173,0,0.339,0.08,0.445,0.216c0.108,0.135,0.151,0.312,0.112,0.483l-3.726,16.822h3.166c0.316,0,0.574,0.257,0.574,0.574
		v4.187C37.311,118.458,37.053,118.716,36.734,118.716z M10.765,117.566h25.397v-3.036H10.765V117.566z M14.459,113.38h17.932
		l3.629-16.372H10.905L14.459,113.38z M24.168,91.628c-1.385,0-2.511-1.126-2.511-2.511c0-0.348,0.068-0.683,0.206-0.995
		l1.818-2.995c0.104-0.171,0.291-0.276,0.491-0.276l0,0c0.201,0,0.387,0.105,0.491,0.277l1.764,2.898
		c0.015,0.021,0.022,0.042,0.033,0.064c0.146,0.325,0.222,0.67,0.222,1.028C26.682,90.502,25.555,91.628,24.168,91.628z
		 M24.172,86.53l-1.292,2.12c-0.036,0.097-0.073,0.278-0.073,0.466c0,0.751,0.61,1.363,1.36,1.363c0.752,0,1.364-0.612,1.364-1.363
		c0-0.182-0.036-0.359-0.106-0.529L24.172,86.53z"/>
</g>
<g>
	<path fill="#FFFFFF" d="M31.206,295H15.721c-1.672,0-3.031-1.361-3.031-3.032v-20.892c0-0.318,0.257-0.575,0.574-0.575h20.4
		c0.316,0,0.574,0.257,0.574,0.575v3.898h3.111c1.674,0,3.032,1.361,3.032,3.032v8.604c0,1.673-1.358,3.033-3.032,3.033h-3.111
		v2.325C34.238,293.639,32.88,295,31.206,295z M13.839,271.649v20.318c0,1.038,0.846,1.883,1.882,1.883h15.485
		c1.039,0,1.884-0.845,1.884-1.883v-20.318H13.839z M34.238,288.493h3.111c1.039,0,1.885-0.845,1.885-1.883v-8.604
		c0-1.038-0.846-1.883-1.885-1.883h-3.111V288.493z M36.734,268.715H10.19c-0.317,0-0.574-0.257-0.574-0.575v-4.186
		c0-0.318,0.257-0.575,0.574-0.575h3.094l-3.652-16.824c-0.037-0.169,0.005-0.347,0.114-0.482c0.109-0.134,0.272-0.214,0.446-0.214
		h26.542c0.176,0,0.34,0.08,0.447,0.216c0.108,0.136,0.151,0.313,0.112,0.483l-3.726,16.821h3.166c0.316,0,0.574,0.257,0.574,0.575
		v4.186C37.311,268.458,37.053,268.715,36.734,268.715z M10.765,267.565h25.397v-3.036H10.765V267.565z M14.459,263.379h17.932
		l3.629-16.371H10.905L14.459,263.379z M24.168,241.627c-1.385,0-2.511-1.126-2.511-2.511c0-0.348,0.068-0.683,0.206-0.995
		l1.818-2.995c0.104-0.171,0.291-0.276,0.491-0.276l0,0c0.201,0,0.387,0.105,0.491,0.277l1.764,2.898
		c0.015,0.021,0.022,0.042,0.033,0.064c0.146,0.325,0.222,0.67,0.222,1.028C26.682,240.501,25.555,241.627,24.168,241.627z
		 M24.172,236.529l-1.292,2.119c-0.036,0.098-0.073,0.278-0.073,0.467c0,0.751,0.61,1.362,1.36,1.362
		c0.752,0,1.364-0.611,1.364-1.362c0-0.183-0.036-0.359-0.106-0.529L24.172,236.529z"/>
	<path fill="#FFFFFF" d="M13.327,289.202c0,0-0.125,3.646,0,3.896c0.212,0.425,1.06,0.826,1.684,0.95
		c0.624,0.125,15.896-0.023,16.271-0.023c0.373,0,1.746-0.354,1.994-0.915c0.25-0.561,0-3.908,0-3.908H13.327z"/>
</g>
<g>
	<path fill="#FFFFFF" d="M31.223,745H15.697c-1.676,0-3.039-1.364-3.039-3.041v-20.947c0-0.315,0.258-0.576,0.576-0.576h20.454
		c0.317,0,0.576,0.261,0.576,0.576v3.911h3.119c1.678,0,3.041,1.363,3.041,3.039v8.627c0,1.676-1.363,3.039-3.041,3.039h-3.119
		v2.331C34.264,743.636,32.9,745,31.223,745z M13.81,721.588v20.371c0,1.042,0.848,1.889,1.887,1.889h15.526
		c1.041,0,1.889-0.847,1.889-1.889v-20.371H13.81z M34.264,738.476h3.119c1.042,0,1.889-0.847,1.889-1.887v-8.627
		c0-1.04-0.847-1.887-1.889-1.887h-3.119V738.476z M36.766,718.645H10.152c-0.318,0-0.576-0.258-0.576-0.573v-4.196
		c0-0.318,0.258-0.576,0.576-0.576h3.102l-3.661-16.867c-0.037-0.17,0.005-0.348,0.114-0.48c0.109-0.136,0.273-0.215,0.447-0.215
		h26.612c0.176,0,0.34,0.077,0.449,0.216c0.108,0.136,0.151,0.312,0.112,0.482l-3.735,16.864h3.174c0.318,0,0.576,0.258,0.576,0.576
		v4.196C37.342,718.387,37.084,718.645,36.766,718.645z M10.728,717.492h25.463v-3.044H10.728V717.492z M14.432,713.296h17.979
		l3.637-16.413h-25.18L14.432,713.296z"/>
	<path fill="#FFFFFF" d="M13.297,724.188c0,0-0.125,18.655,0,18.905c0.213,0.427,1.062,0.828,1.688,0.953
		c0.625,0.125,15.938-0.021,16.312-0.021s1.75-0.354,2-0.922c0.25-0.562,0-18.918,0-18.918h-20V724.188z"/>
</g>
<g>
	<path fill="#FFFFFF" d="M31.206,445H15.721c-1.672,0-3.031-1.36-3.031-3.033v-20.891c0-0.317,0.257-0.575,0.574-0.575h20.4
		c0.316,0,0.574,0.258,0.574,0.575v3.896h3.111c1.674,0,3.032,1.361,3.032,3.033v8.604c0,1.674-1.358,3.033-3.032,3.033h-3.111
		v2.323C34.238,443.64,32.88,445,31.206,445z M13.839,421.649v20.316c0,1.039,0.846,1.884,1.882,1.884h15.485
		c1.039,0,1.884-0.845,1.884-1.884v-20.316H13.839L13.839,421.649z M34.238,438.495h3.111c1.039,0,1.885-0.846,1.885-1.886v-8.604
		c0-1.039-0.846-1.884-1.885-1.884h-3.111V438.495z M36.734,418.715H10.19c-0.317,0-0.574-0.257-0.574-0.574v-4.186
		c0-0.316,0.257-0.575,0.574-0.575h3.094l-3.652-16.823c-0.037-0.168,0.005-0.347,0.114-0.479c0.109-0.136,0.272-0.216,0.446-0.216
		h26.542c0.176,0,0.34,0.078,0.447,0.217c0.108,0.136,0.151,0.312,0.112,0.48l-3.726,16.821h3.166c0.316,0,0.574,0.259,0.574,0.575
		v4.186C37.311,418.458,37.053,418.715,36.734,418.715z M10.765,417.564h25.397v-3.036H10.765V417.564z M14.459,413.379h17.932
		l3.629-16.37H10.905L14.459,413.379z"/>
	<path fill="#FFFFFF" d="M13.327,435.213c0,0-0.125,7.637,0,7.886c0.212,0.426,1.06,0.826,1.684,0.951
		c0.624,0.124,15.896-0.022,16.271-0.022c0.373,0,1.746-0.354,1.994-0.916c0.25-0.561,0-7.897,0-7.897L13.327,435.213
		L13.327,435.213z"/>
	<path fill="#FFFFFF" d="M24.17,432.27c-1.21,0-2.194-0.983-2.194-2.194c0-0.304,0.061-0.598,0.18-0.87l1.527-2.516
		c0.104-0.174,0.29-0.276,0.49-0.276l0,0c0.201,0,0.387,0.104,0.491,0.276l1.477,2.427c0.158,0.342,0.223,0.646,0.223,0.961
		C26.363,431.285,25.379,432.27,24.17,432.27z M24.173,428.09l-1,1.643c-0.021,0.061-0.048,0.197-0.048,0.345
		c0,0.574,0.469,1.046,1.045,1.046s1.043-0.472,1.043-1.046c0-0.15-0.03-0.295-0.09-0.427L24.173,428.09z"/>
</g>
<g>
	<path fill="#FFFFFF" d="M31.223,595H15.697c-1.676,0-3.039-1.364-3.039-3.041v-20.945c0-0.317,0.258-0.576,0.576-0.576h20.454
		c0.317,0,0.576,0.259,0.576,0.576v3.908h3.119c1.678,0,3.041,1.364,3.041,3.041v8.625c0,1.678-1.363,3.042-3.041,3.042h-3.119
		v2.329C34.264,593.636,32.9,595,31.223,595z M13.81,571.589v20.37c0,1.042,0.848,1.889,1.887,1.889h15.526
		c1.041,0,1.889-0.847,1.889-1.889v-20.37H13.81z M34.264,588.479h3.119c1.042,0,1.889-0.849,1.889-1.891v-8.625
		c0-1.042-0.847-1.889-1.889-1.889h-3.119V588.479z M36.766,568.646H10.152c-0.318,0-0.576-0.259-0.576-0.576v-4.196
		c0-0.317,0.258-0.576,0.576-0.576h3.102l-3.661-16.866c-0.037-0.17,0.005-0.349,0.114-0.481c0.109-0.138,0.273-0.217,0.447-0.217
		h26.612c0.176,0,0.34,0.08,0.449,0.218c0.108,0.136,0.151,0.312,0.112,0.482l-3.735,16.864h3.174c0.318,0,0.576,0.259,0.576,0.576
		v4.196C37.342,568.389,37.084,568.646,36.766,568.646z M10.728,567.493h25.463v-3.044H10.728V567.493z M14.432,563.297h17.979
		l3.637-16.413h-25.18L14.432,563.297z"/>
	<path fill="#FFFFFF" d="M13.297,580.188c0,0-0.125,12.656,0,12.906c0.213,0.426,1.062,0.828,1.688,0.953
		c0.625,0.125,15.938-0.022,16.312-0.022s1.75-0.354,2-0.919c0.25-0.562,0-12.918,0-12.918H13.297L13.297,580.188z"/>
	<path fill="#FFFFFF" d="M24.168,586.986c-1.214,0-2.2-0.987-2.2-2.201c0-0.305,0.061-0.598,0.18-0.872l1.531-2.522
		c0.104-0.173,0.291-0.276,0.492-0.276l0,0c0.201,0,0.388,0.104,0.492,0.276l1.479,2.435c0.158,0.342,0.225,0.645,0.225,0.963
		C26.367,585.999,25.38,586.986,24.168,586.986z M24.171,582.796l-1.003,1.646c-0.021,0.061-0.048,0.198-0.048,0.346
		c0,0.576,0.47,1.049,1.048,1.049c0.577,0,1.046-0.472,1.046-1.049c0-0.152-0.03-0.296-0.09-0.428L24.171,582.796z"/>
	<path fill="#FFFFFF" d="M24.168,578.236c-1.214,0-2.2-0.987-2.2-2.201c0-0.305,0.061-0.598,0.18-0.872l1.531-2.522
		c0.104-0.173,0.291-0.276,0.492-0.276l0,0c0.201,0,0.388,0.104,0.492,0.276l1.479,2.435c0.158,0.342,0.225,0.645,0.225,0.963
		C26.367,577.249,25.38,578.236,24.168,578.236z M24.171,574.046l-1.003,1.646c-0.021,0.061-0.048,0.198-0.048,0.346
		c0,0.576,0.47,1.049,1.048,1.049c0.577,0,1.046-0.472,1.046-1.049c0-0.152-0.03-0.296-0.09-0.428L24.171,574.046z"/>
</g>
<g id="Layer_3" display="none">
	<g display="inline">
		
			<path fill="none" stroke="#FFFFFF" stroke-width="1.152" stroke-linecap="round" stroke-linejoin="round" stroke-miterlimit="10" d="
			M37.725,20.987v-5.112 M37.725,57.952V25.207"/>
		
			<path fill="none" stroke="#FFFFFF" stroke-width="1.152" stroke-linecap="round" stroke-linejoin="round" stroke-miterlimit="10" d="
			M48.962,61.291v-0.874c0-1.361-0.967-2.465-2.16-2.465H28.646c-1.192,0-2.158,1.104-2.158,2.465v0.874H48.962z M24.776,25.207
			v-1.755c0-1.361,1.103-2.465,2.464-2.465h21.07c1.359,0,2.465,1.104,2.465,2.465v1.755H24.776z M50.773,36.334h3.697
			c1.359,0,2.465,1.104,2.465,2.465v14.385c0,1.361-1.104,2.464-2.465,2.464h-3.697 M50.773,28.03v39.801
			c0,2.001-1.104,2.406-2.463,2.406H27.24c-1.361,0-2.465-1.104-2.465-2.466V35.489l-5.122-7.459H50.773z"/>
		<path fill="#FFFFFF" d="M29.014,64.504c0,0.677-0.549,1.225-1.225,1.225s-1.225-0.548-1.225-1.225
			c0-0.676,0.549-1.224,1.225-1.224S29.014,63.828,29.014,64.504"/>
		<path fill="#FFFFFF" d="M33.98,64.504c0,0.677-0.547,1.225-1.225,1.225c-0.676,0-1.224-0.548-1.224-1.225
			c0-0.676,0.548-1.224,1.224-1.224C33.434,63.28,33.98,63.828,33.98,64.504"/>
		<path fill="#FFFFFF" d="M38.949,64.504c0,0.677-0.549,1.225-1.225,1.225c-0.677,0-1.225-0.548-1.225-1.225
			c0-0.676,0.548-1.224,1.225-1.224C38.4,63.28,38.949,63.828,38.949,64.504"/>
		
			<circle fill="none" stroke="#FFFFFF" stroke-width="1.152" stroke-linecap="round" stroke-linejoin="round" stroke-miterlimit="10" cx="37.725" cy="12.721" r="2.958"/>
		<path fill="#FFFFFF" d="M43.917,64.504c0,0.677-0.548,1.225-1.224,1.225s-1.226-0.548-1.226-1.225c0-0.676,0.55-1.224,1.226-1.224
			S43.917,63.828,43.917,64.504"/>
		<path fill="#FFFFFF" d="M31.497,67.601c0,0.677-0.548,1.224-1.224,1.224s-1.226-0.547-1.226-1.224c0-0.677,0.55-1.225,1.226-1.225
			S31.497,66.924,31.497,67.601"/>
		<path fill="#FFFFFF" d="M36.465,67.601c0,0.677-0.548,1.224-1.224,1.224c-0.677,0-1.224-0.547-1.224-1.224
			c0-0.677,0.547-1.225,1.224-1.225C35.917,66.376,36.465,66.924,36.465,67.601"/>
		<path fill="#FFFFFF" d="M41.434,67.601c0,0.677-0.549,1.224-1.225,1.224s-1.225-0.547-1.225-1.224
			c0-0.677,0.549-1.225,1.225-1.225S41.434,66.924,41.434,67.601"/>
		<path fill="#FFFFFF" d="M46.4,67.601c0,0.677-0.547,1.224-1.225,1.224c-0.676,0-1.224-0.547-1.224-1.224
			c0-0.677,0.548-1.225,1.224-1.225C45.854,66.376,46.4,66.924,46.4,67.601"/>
		<path fill="#FFFFFF" d="M48.885,64.504c0,0.677-0.548,1.225-1.224,1.225c-0.677,0-1.224-0.548-1.224-1.225
			c0-0.676,0.547-1.224,1.224-1.224C48.337,63.28,48.885,63.828,48.885,64.504"/>
	</g>
	<g display="inline">
		
			<path fill="none" stroke="#FFFFFF" stroke-width="1.152" stroke-linecap="round" stroke-linejoin="round" stroke-miterlimit="10" d="
			M50.773,126.334h3.697c1.359,0,2.465,1.104,2.465,2.465v14.385c0,1.361-1.104,2.464-2.465,2.464h-3.697 M50.773,118.03v39.801
			c0,2.001-1.104,2.406-2.463,2.406H27.24c-1.361,0-2.465-1.104-2.465-2.466v-32.282l-5.122-7.459H50.773z"/>
		<path fill="#FFFFFF" d="M29.014,154.504c0,0.677-0.549,1.225-1.225,1.225s-1.225-0.548-1.225-1.225
			c0-0.676,0.549-1.224,1.225-1.224S29.014,153.828,29.014,154.504"/>
		<path fill="#FFFFFF" d="M33.98,154.504c0,0.677-0.547,1.225-1.225,1.225c-0.676,0-1.224-0.548-1.224-1.225
			c0-0.676,0.548-1.224,1.224-1.224C33.434,153.28,33.98,153.828,33.98,154.504"/>
		<path fill="#FFFFFF" d="M38.949,154.504c0,0.677-0.549,1.225-1.225,1.225c-0.677,0-1.225-0.548-1.225-1.225
			c0-0.676,0.548-1.224,1.225-1.224C38.4,153.28,38.949,153.828,38.949,154.504"/>
		<path fill="#FFFFFF" d="M43.917,154.504c0,0.677-0.548,1.225-1.224,1.225s-1.226-0.548-1.226-1.225
			c0-0.676,0.55-1.224,1.226-1.224S43.917,153.828,43.917,154.504"/>
		<path fill="#FFFFFF" d="M31.497,157.601c0,0.677-0.548,1.224-1.224,1.224s-1.226-0.547-1.226-1.224
			c0-0.677,0.55-1.225,1.226-1.225S31.497,156.924,31.497,157.601"/>
		<path fill="#FFFFFF" d="M36.465,157.601c0,0.677-0.548,1.224-1.224,1.224c-0.677,0-1.224-0.547-1.224-1.224
			c0-0.677,0.547-1.225,1.224-1.225C35.917,156.376,36.465,156.924,36.465,157.601"/>
		<path fill="#FFFFFF" d="M41.434,157.601c0,0.677-0.549,1.224-1.225,1.224s-1.225-0.547-1.225-1.224
			c0-0.677,0.549-1.225,1.225-1.225S41.434,156.924,41.434,157.601"/>
		<path fill="#FFFFFF" d="M46.4,157.601c0,0.677-0.547,1.224-1.225,1.224c-0.676,0-1.224-0.547-1.224-1.224
			c0-0.677,0.548-1.225,1.224-1.225C45.854,156.376,46.4,156.924,46.4,157.601"/>
		<path fill="#FFFFFF" d="M48.885,154.504c0,0.677-0.548,1.225-1.224,1.225c-0.677,0-1.224-0.548-1.224-1.225
			c0-0.676,0.547-1.224,1.224-1.224C48.337,153.28,48.885,153.828,48.885,154.504"/>
		<path fill="#FFFFFF" d="M29.014,147.504c0,0.677-0.549,1.225-1.225,1.225s-1.225-0.548-1.225-1.225
			c0-0.676,0.549-1.224,1.225-1.224S29.014,146.828,29.014,147.504"/>
		<path fill="#FFFFFF" d="M33.98,147.504c0,0.677-0.547,1.225-1.225,1.225c-0.676,0-1.224-0.548-1.224-1.225
			c0-0.676,0.548-1.224,1.224-1.224C33.434,146.28,33.98,146.828,33.98,147.504"/>
		<path fill="#FFFFFF" d="M38.949,147.504c0,0.677-0.549,1.225-1.225,1.225c-0.677,0-1.225-0.548-1.225-1.225
			c0-0.676,0.548-1.224,1.225-1.224C38.4,146.28,38.949,146.828,38.949,147.504"/>
		<path fill="#FFFFFF" d="M43.917,147.504c0,0.677-0.548,1.225-1.224,1.225s-1.226-0.548-1.226-1.225
			c0-0.676,0.55-1.224,1.226-1.224S43.917,146.828,43.917,147.504"/>
		<path fill="#FFFFFF" d="M31.497,150.601c0,0.677-0.548,1.224-1.224,1.224s-1.226-0.547-1.226-1.224
			c0-0.677,0.55-1.225,1.226-1.225S31.497,149.924,31.497,150.601"/>
		<path fill="#FFFFFF" d="M36.465,150.601c0,0.677-0.548,1.224-1.224,1.224c-0.677,0-1.224-0.547-1.224-1.224
			c0-0.677,0.547-1.225,1.224-1.225C35.917,149.376,36.465,149.924,36.465,150.601"/>
		<path fill="#FFFFFF" d="M41.434,150.601c0,0.677-0.549,1.224-1.225,1.224s-1.225-0.547-1.225-1.224
			c0-0.677,0.549-1.225,1.225-1.225S41.434,149.924,41.434,150.601"/>
		<path fill="#FFFFFF" d="M46.4,150.601c0,0.677-0.547,1.224-1.225,1.224c-0.676,0-1.224-0.547-1.224-1.224
			c0-0.677,0.548-1.225,1.224-1.225C45.854,149.376,46.4,149.924,46.4,150.601"/>
		<path fill="#FFFFFF" d="M48.885,147.504c0,0.677-0.548,1.225-1.224,1.225c-0.677,0-1.224-0.548-1.224-1.225
			c0-0.676,0.547-1.224,1.224-1.224C48.337,146.28,48.885,146.828,48.885,147.504"/>
		<path fill="#FFFFFF" d="M29.014,140.504c0,0.677-0.549,1.225-1.225,1.225s-1.225-0.548-1.225-1.225
			c0-0.676,0.549-1.224,1.225-1.224S29.014,139.828,29.014,140.504"/>
		<path fill="#FFFFFF" d="M33.98,140.504c0,0.677-0.547,1.225-1.225,1.225c-0.676,0-1.224-0.548-1.224-1.225
			c0-0.676,0.548-1.224,1.224-1.224C33.434,139.28,33.98,139.828,33.98,140.504"/>
		<path fill="#FFFFFF" d="M38.949,140.504c0,0.677-0.549,1.225-1.225,1.225c-0.677,0-1.225-0.548-1.225-1.225
			c0-0.676,0.548-1.224,1.225-1.224C38.4,139.28,38.949,139.828,38.949,140.504"/>
		<path fill="#FFFFFF" d="M43.917,140.504c0,0.677-0.548,1.225-1.224,1.225s-1.226-0.548-1.226-1.225
			c0-0.676,0.55-1.224,1.226-1.224S43.917,139.828,43.917,140.504"/>
		<path fill="#FFFFFF" d="M31.497,143.601c0,0.677-0.548,1.224-1.224,1.224s-1.226-0.547-1.226-1.224
			c0-0.677,0.55-1.225,1.226-1.225S31.497,142.924,31.497,143.601"/>
		<path fill="#FFFFFF" d="M36.465,143.601c0,0.677-0.548,1.224-1.224,1.224c-0.677,0-1.224-0.547-1.224-1.224
			c0-0.677,0.547-1.225,1.224-1.225C35.917,142.376,36.465,142.924,36.465,143.601"/>
		<path fill="#FFFFFF" d="M41.434,143.601c0,0.677-0.549,1.224-1.225,1.224s-1.225-0.547-1.225-1.224
			c0-0.677,0.549-1.225,1.225-1.225S41.434,142.924,41.434,143.601"/>
		<path fill="#FFFFFF" d="M46.4,143.601c0,0.677-0.547,1.224-1.225,1.224c-0.676,0-1.224-0.547-1.224-1.224
			c0-0.677,0.548-1.225,1.224-1.225C45.854,142.376,46.4,142.924,46.4,143.601"/>
		<path fill="#FFFFFF" d="M31.497,136.601c0,0.677-0.548,1.224-1.224,1.224s-1.226-0.547-1.226-1.224
			c0-0.677,0.55-1.225,1.226-1.225S31.497,135.924,31.497,136.601"/>
		<path fill="#FFFFFF" d="M36.465,136.601c0,0.677-0.548,1.224-1.224,1.224c-0.677,0-1.224-0.547-1.224-1.224
			c0-0.677,0.547-1.225,1.224-1.225C35.917,135.376,36.465,135.924,36.465,136.601"/>
		<path fill="#FFFFFF" d="M41.434,136.601c0,0.677-0.549,1.224-1.225,1.224s-1.225-0.547-1.225-1.224
			c0-0.677,0.549-1.225,1.225-1.225S41.434,135.924,41.434,136.601"/>
		<path fill="#FFFFFF" d="M46.4,136.601c0,0.677-0.547,1.224-1.225,1.224c-0.676,0-1.224-0.547-1.224-1.224
			c0-0.677,0.548-1.225,1.224-1.225C45.854,135.376,46.4,135.924,46.4,136.601"/>
		<path fill="#FFFFFF" d="M48.885,140.504c0,0.677-0.548,1.225-1.224,1.225c-0.677,0-1.224-0.548-1.224-1.225
			c0-0.676,0.547-1.224,1.224-1.224C48.337,139.28,48.885,139.828,48.885,140.504"/>
		<g>
			
				<path fill="none" stroke="#FFFFFF" stroke-width="1.152" stroke-linecap="round" stroke-linejoin="round" stroke-miterlimit="10" d="
				M37.725,110.987V86.875 M37.725,128.952v-13.745"/>
			
				<circle fill="none" stroke="#FFFFFF" stroke-width="1.152" stroke-linecap="round" stroke-linejoin="round" stroke-miterlimit="10" cx="37.725" cy="83.721" r="2.958"/>
			
				<path fill="none" stroke="#FFFFFF" stroke-width="1.152" stroke-linecap="round" stroke-linejoin="round" stroke-miterlimit="10" d="
				M48.962,132.291v-0.874c0-1.361-0.967-2.465-2.16-2.465H28.646c-1.192,0-2.158,1.104-2.158,2.465v0.874H48.962z"/>
			
				<path fill="none" stroke="#FFFFFF" stroke-width="1.152" stroke-linecap="round" stroke-linejoin="round" stroke-miterlimit="10" d="
				M24.776,115.207v-1.755c0-1.361,1.103-2.465,2.464-2.465h21.07c1.359,0,2.465,1.104,2.465,2.465v1.755H24.776z"/>
		</g>
	</g>
	<g display="inline">
		<path fill="#FFFFFF" d="M36,219H25v5.812l0,0v-0.146c0-1.361,1.779-2.667,2.973-2.667H36v-0.298V219z"/>
		<path fill="#FFFFFF" d="M40,219h11v5.812l0,0v-0.146c0-1.361-0.625-2.667-1.816-2.667H40v-0.298V219z"/>
		
			<path fill="none" stroke="#FFFFFF" stroke-width="1.152" stroke-linecap="round" stroke-linejoin="round" stroke-miterlimit="10" d="
			M51.198,216.334h3.696c1.359,0,2.465,1.104,2.465,2.465v14.385c0,1.361-1.104,2.465-2.465,2.465h-3.696 M51.198,208.03v39.801
			c0,2.001-1.103,2.405-2.464,2.405h-21.07c-1.361,0-2.465-1.104-2.465-2.465v-32.282l-5.122-7.459H51.198z"/>
		<path fill="#FFFFFF" d="M29.525,244.504c0,0.678-0.549,1.225-1.226,1.225c-0.676,0-1.224-0.547-1.224-1.225
			c0-0.676,0.548-1.225,1.224-1.225C28.977,243.279,29.525,243.828,29.525,244.504"/>
		<path fill="#FFFFFF" d="M34.493,244.504c0,0.678-0.548,1.225-1.224,1.225c-0.678,0-1.226-0.547-1.226-1.225
			c0-0.676,0.548-1.225,1.226-1.225C33.945,243.279,34.493,243.828,34.493,244.504"/>
		<path fill="#FFFFFF" d="M39.461,244.504c0,0.678-0.548,1.225-1.225,1.225c-0.676,0-1.223-0.547-1.223-1.225
			c0-0.676,0.547-1.225,1.223-1.225C38.913,243.279,39.461,243.828,39.461,244.504"/>
		<path fill="#FFFFFF" d="M44.43,244.504c0,0.678-0.549,1.225-1.225,1.225s-1.225-0.547-1.225-1.225
			c0-0.676,0.549-1.225,1.225-1.225S44.43,243.828,44.43,244.504"/>
		<path fill="#FFFFFF" d="M32.009,247.602c0,0.676-0.548,1.227-1.224,1.227s-1.225-0.551-1.225-1.227
			c0-0.678,0.549-1.226,1.225-1.226S32.009,246.924,32.009,247.602"/>
		<path fill="#FFFFFF" d="M36.977,247.602c0,0.676-0.547,1.227-1.224,1.227c-0.676,0-1.224-0.551-1.224-1.227
			c0-0.678,0.548-1.226,1.224-1.226C36.43,246.376,36.977,246.924,36.977,247.602"/>
		<path fill="#FFFFFF" d="M41.945,247.602c0,0.676-0.549,1.227-1.225,1.227c-0.677,0-1.225-0.551-1.225-1.227
			c0-0.678,0.548-1.226,1.225-1.226C41.396,246.376,41.945,246.924,41.945,247.602"/>
		<path fill="#FFFFFF" d="M46.913,247.602c0,0.676-0.548,1.227-1.224,1.227s-1.226-0.551-1.226-1.227
			c0-0.678,0.55-1.226,1.226-1.226S46.913,246.924,46.913,247.602"/>
		<path fill="#FFFFFF" d="M49.396,244.504c0,0.678-0.547,1.225-1.225,1.225c-0.676,0-1.224-0.547-1.224-1.225
			c0-0.676,0.548-1.225,1.224-1.225C48.85,243.279,49.396,243.828,49.396,244.504"/>
		<path fill="#FFFFFF" d="M29.525,237.504c0,0.678-0.549,1.225-1.226,1.225c-0.676,0-1.224-0.547-1.224-1.225
			c0-0.676,0.548-1.225,1.224-1.225C28.977,236.279,29.525,236.828,29.525,237.504"/>
		<path fill="#FFFFFF" d="M34.493,237.504c0,0.678-0.548,1.225-1.224,1.225c-0.678,0-1.226-0.547-1.226-1.225
			c0-0.676,0.548-1.225,1.226-1.225C33.945,236.279,34.493,236.828,34.493,237.504"/>
		<path fill="#FFFFFF" d="M39.461,237.504c0,0.678-0.548,1.225-1.225,1.225c-0.676,0-1.223-0.547-1.223-1.225
			c0-0.676,0.547-1.225,1.223-1.225C38.913,236.279,39.461,236.828,39.461,237.504"/>
		<path fill="#FFFFFF" d="M44.43,237.504c0,0.678-0.549,1.225-1.225,1.225s-1.225-0.547-1.225-1.225
			c0-0.676,0.549-1.225,1.225-1.225S44.43,236.828,44.43,237.504"/>
		<path fill="#FFFFFF" d="M32.009,240.602c0,0.676-0.548,1.227-1.224,1.227s-1.225-0.551-1.225-1.227
			c0-0.678,0.549-1.226,1.225-1.226S32.009,239.924,32.009,240.602"/>
		<path fill="#FFFFFF" d="M36.977,240.602c0,0.676-0.547,1.227-1.224,1.227c-0.676,0-1.224-0.551-1.224-1.227
			c0-0.678,0.548-1.226,1.224-1.226C36.43,239.376,36.977,239.924,36.977,240.602"/>
		<path fill="#FFFFFF" d="M41.945,240.602c0,0.676-0.549,1.227-1.225,1.227c-0.677,0-1.225-0.551-1.225-1.227
			c0-0.678,0.548-1.226,1.225-1.226C41.396,239.376,41.945,239.924,41.945,240.602"/>
		<path fill="#FFFFFF" d="M46.913,240.602c0,0.676-0.548,1.227-1.224,1.227s-1.226-0.551-1.226-1.227
			c0-0.678,0.55-1.226,1.226-1.226S46.913,239.924,46.913,240.602"/>
		<path fill="#FFFFFF" d="M49.396,237.504c0,0.678-0.547,1.225-1.225,1.225c-0.676,0-1.224-0.547-1.224-1.225
			c0-0.676,0.548-1.225,1.224-1.225C48.85,236.279,49.396,236.828,49.396,237.504"/>
		<path fill="#FFFFFF" d="M29.525,230.504c0,0.678-0.549,1.225-1.226,1.225c-0.676,0-1.224-0.547-1.224-1.225
			c0-0.676,0.548-1.225,1.224-1.225C28.977,229.279,29.525,229.828,29.525,230.504"/>
		<path fill="#FFFFFF" d="M34.493,230.504c0,0.678-0.548,1.225-1.224,1.225c-0.678,0-1.226-0.547-1.226-1.225
			c0-0.676,0.548-1.225,1.226-1.225C33.945,229.279,34.493,229.828,34.493,230.504"/>
		<path fill="#FFFFFF" d="M39.461,230.504c0,0.678-0.548,1.225-1.225,1.225c-0.676,0-1.223-0.547-1.223-1.225
			c0-0.676,0.547-1.225,1.223-1.225C38.913,229.279,39.461,229.828,39.461,230.504"/>
		<path fill="#FFFFFF" d="M44.43,230.504c0,0.678-0.549,1.225-1.225,1.225s-1.225-0.547-1.225-1.225
			c0-0.676,0.549-1.225,1.225-1.225S44.43,229.828,44.43,230.504"/>
		<path fill="#FFFFFF" d="M32.009,233.602c0,0.676-0.548,1.227-1.224,1.227s-1.225-0.551-1.225-1.227
			c0-0.678,0.549-1.226,1.225-1.226S32.009,232.924,32.009,233.602"/>
		<path fill="#FFFFFF" d="M36.977,233.602c0,0.676-0.547,1.227-1.224,1.227c-0.676,0-1.224-0.551-1.224-1.227
			c0-0.678,0.548-1.226,1.224-1.226C36.43,232.376,36.977,232.924,36.977,233.602"/>
		<path fill="#FFFFFF" d="M41.945,233.602c0,0.676-0.549,1.227-1.225,1.227c-0.677,0-1.225-0.551-1.225-1.227
			c0-0.678,0.548-1.226,1.225-1.226C41.396,232.376,41.945,232.924,41.945,233.602"/>
		<path fill="#FFFFFF" d="M46.913,233.602c0,0.676-0.548,1.227-1.224,1.227s-1.226-0.551-1.226-1.227
			c0-0.678,0.55-1.226,1.226-1.226S46.913,232.924,46.913,233.602"/>
		<path fill="#FFFFFF" d="M49.396,230.504c0,0.678-0.547,1.225-1.225,1.225c-0.676,0-1.224-0.547-1.224-1.225
			c0-0.676,0.548-1.225,1.224-1.225C48.85,229.279,49.396,229.828,49.396,230.504"/>
		
			<path fill="none" stroke="#FFFFFF" stroke-width="1.152" stroke-linecap="round" stroke-linejoin="round" stroke-miterlimit="10" d="
			M38.148,200.987v-19.112 M38.148,223.952v-18.745"/>
		
			<circle fill="none" stroke="#FFFFFF" stroke-width="1.152" stroke-linecap="round" stroke-linejoin="round" stroke-miterlimit="10" cx="38.148" cy="178.721" r="2.958"/>
		
			<path fill="none" stroke="#FFFFFF" stroke-width="1.152" stroke-linecap="round" stroke-linejoin="round" stroke-miterlimit="10" d="
			M49.387,227.291v-0.874c0-1.36-0.968-2.465-2.16-2.465H29.07c-1.192,0-2.158,1.104-2.158,2.465v0.874H49.387z"/>
		
			<path fill="none" stroke="#FFFFFF" stroke-width="1.152" stroke-linecap="round" stroke-linejoin="round" stroke-miterlimit="10" d="
			M25.2,205.207v-1.755c0-1.361,1.103-2.465,2.464-2.465h21.07c1.361,0,2.465,1.104,2.465,2.465v1.755H25.2z"/>
	</g>
	<g display="inline">
		<path fill="#FFFFFF" d="M36,299H25v12.812v-7v6.854c0-1.361,1.779-2.667,2.973-2.667H36v-0.298V299z"/>
		<path fill="#FFFFFF" d="M40,299h11v12.812v-7v6.854c0-1.361-0.625-2.667-1.816-2.667H40v-7.298V299z"/>
		
			<path fill="none" stroke="#FFFFFF" stroke-width="1.152" stroke-linecap="round" stroke-linejoin="round" stroke-miterlimit="10" d="
			M51.198,296.334h3.696c1.359,0,2.465,1.104,2.465,2.465v14.385c0,1.361-1.104,2.465-2.465,2.465h-3.696 M51.198,288.029v39.802
			c0,2.001-1.103,2.405-2.464,2.405h-21.07c-1.361,0-2.465-1.104-2.465-2.465v-32.283l-5.122-7.459H51.198L51.198,288.029z"/>
		<path fill="#FFFFFF" d="M29.525,324.504c0,0.678-0.549,1.225-1.226,1.225c-0.676,0-1.224-0.547-1.224-1.225
			c0-0.676,0.548-1.225,1.224-1.225C28.977,323.279,29.525,323.828,29.525,324.504"/>
		<path fill="#FFFFFF" d="M34.493,324.504c0,0.678-0.548,1.225-1.224,1.225c-0.678,0-1.226-0.547-1.226-1.225
			c0-0.676,0.548-1.225,1.226-1.225C33.945,323.279,34.493,323.828,34.493,324.504"/>
		<path fill="#FFFFFF" d="M39.461,324.504c0,0.678-0.548,1.225-1.225,1.225c-0.676,0-1.223-0.547-1.223-1.225
			c0-0.676,0.547-1.225,1.223-1.225C38.913,323.279,39.461,323.828,39.461,324.504"/>
		<path fill="#FFFFFF" d="M44.43,324.504c0,0.678-0.549,1.225-1.225,1.225s-1.225-0.547-1.225-1.225
			c0-0.676,0.549-1.225,1.225-1.225S44.43,323.828,44.43,324.504"/>
		<path fill="#FFFFFF" d="M32.009,327.602c0,0.676-0.548,1.227-1.224,1.227s-1.225-0.551-1.225-1.227
			c0-0.678,0.549-1.226,1.225-1.226S32.009,326.924,32.009,327.602"/>
		<path fill="#FFFFFF" d="M36.977,327.602c0,0.676-0.547,1.227-1.224,1.227c-0.676,0-1.224-0.551-1.224-1.227
			c0-0.678,0.548-1.226,1.224-1.226C36.43,326.376,36.977,326.924,36.977,327.602"/>
		<path fill="#FFFFFF" d="M41.945,327.602c0,0.676-0.549,1.227-1.225,1.227c-0.677,0-1.225-0.551-1.225-1.227
			c0-0.678,0.548-1.226,1.225-1.226C41.396,326.376,41.945,326.924,41.945,327.602"/>
		<path fill="#FFFFFF" d="M46.913,327.602c0,0.676-0.548,1.227-1.224,1.227s-1.226-0.551-1.226-1.227
			c0-0.678,0.55-1.226,1.226-1.226S46.913,326.924,46.913,327.602"/>
		<path fill="#FFFFFF" d="M49.396,324.504c0,0.678-0.547,1.225-1.225,1.225c-0.676,0-1.224-0.547-1.224-1.225
			c0-0.676,0.548-1.225,1.224-1.225C48.85,323.279,49.396,323.828,49.396,324.504"/>
		<path fill="#FFFFFF" d="M29.525,317.504c0,0.678-0.549,1.225-1.226,1.225c-0.676,0-1.224-0.547-1.224-1.225
			c0-0.676,0.548-1.225,1.224-1.225C28.977,316.279,29.525,316.828,29.525,317.504"/>
		<path fill="#FFFFFF" d="M34.493,317.504c0,0.678-0.548,1.225-1.224,1.225c-0.678,0-1.226-0.547-1.226-1.225
			c0-0.676,0.548-1.225,1.226-1.225C33.945,316.279,34.493,316.828,34.493,317.504"/>
		<path fill="#FFFFFF" d="M39.461,317.504c0,0.678-0.548,1.225-1.225,1.225c-0.676,0-1.223-0.547-1.223-1.225
			c0-0.676,0.547-1.225,1.223-1.225C38.913,316.279,39.461,316.828,39.461,317.504"/>
		<path fill="#FFFFFF" d="M44.43,317.504c0,0.678-0.549,1.225-1.225,1.225s-1.225-0.547-1.225-1.225
			c0-0.676,0.549-1.225,1.225-1.225S44.43,316.828,44.43,317.504"/>
		<path fill="#FFFFFF" d="M32.009,320.602c0,0.676-0.548,1.227-1.224,1.227s-1.225-0.551-1.225-1.227
			c0-0.678,0.549-1.226,1.225-1.226S32.009,319.924,32.009,320.602"/>
		<path fill="#FFFFFF" d="M36.977,320.602c0,0.676-0.547,1.227-1.224,1.227c-0.676,0-1.224-0.551-1.224-1.227
			c0-0.678,0.548-1.226,1.224-1.226C36.43,319.376,36.977,319.924,36.977,320.602"/>
		<path fill="#FFFFFF" d="M41.945,320.602c0,0.676-0.549,1.227-1.225,1.227c-0.677,0-1.225-0.551-1.225-1.227
			c0-0.678,0.548-1.226,1.225-1.226C41.396,319.376,41.945,319.924,41.945,320.602"/>
		<path fill="#FFFFFF" d="M46.913,320.602c0,0.676-0.548,1.227-1.224,1.227s-1.226-0.551-1.226-1.227
			c0-0.678,0.55-1.226,1.226-1.226S46.913,319.924,46.913,320.602"/>
		<path fill="#FFFFFF" d="M49.396,317.504c0,0.678-0.547,1.225-1.225,1.225c-0.676,0-1.224-0.547-1.224-1.225
			c0-0.676,0.548-1.225,1.224-1.225C48.85,316.279,49.396,316.828,49.396,317.504"/>
		
			<path fill="none" stroke="#FFFFFF" stroke-width="1.152" stroke-linecap="round" stroke-linejoin="round" stroke-miterlimit="10" d="
			M38.148,280.986v-12.111 M38.148,310.952v-25.745"/>
		
			<circle fill="none" stroke="#FFFFFF" stroke-width="1.152" stroke-linecap="round" stroke-linejoin="round" stroke-miterlimit="10" cx="38.148" cy="265.722" r="2.958"/>
		
			<path fill="none" stroke="#FFFFFF" stroke-width="1.152" stroke-linecap="round" stroke-linejoin="round" stroke-miterlimit="10" d="
			M49.387,314.291v-0.874c0-1.36-0.968-2.465-2.16-2.465H29.07c-1.192,0-2.158,1.104-2.158,2.465v0.874H49.387z"/>
		
			<path fill="none" stroke="#FFFFFF" stroke-width="1.152" stroke-linecap="round" stroke-linejoin="round" stroke-miterlimit="10" d="
			M25.2,285.207v-1.755c0-1.361,1.103-2.468,2.464-2.468h21.07c1.361,0,2.465,1.104,2.465,2.468v1.755H25.2z"/>
	</g>
	<g display="inline">
		<path fill="#FFFFFF" d="M37,379H26v19.812v-14v13.854c0-1.361,1.777-2.667,2.973-2.667H37v-7.298V379z"/>
		<path fill="#FFFFFF" d="M41,379h11v19.812v-14v13.854c0-1.361-0.624-2.667-1.816-2.667H41v-14.298V379z"/>
		
			<path fill="none" stroke="#FFFFFF" stroke-width="1.152" stroke-linecap="round" stroke-linejoin="round" stroke-miterlimit="10" d="
			M52.198,376.335h3.696c1.358,0,2.465,1.104,2.465,2.465v14.386c0,1.36-1.104,2.463-2.465,2.463h-3.696 M52.198,368.029v39.802
			c0,2.002-1.104,2.406-2.464,2.406h-21.07c-1.359,0-2.465-1.104-2.465-2.465v-32.283l-5.122-7.46H52.198L52.198,368.029z"/>
		<path fill="#FFFFFF" d="M30.525,404.505c0,0.676-0.549,1.229-1.226,1.229s-1.225-0.554-1.225-1.229s0.548-1.225,1.225-1.225
			C29.979,403.28,30.525,403.829,30.525,404.505"/>
		<path fill="#FFFFFF" d="M35.493,404.505c0,0.676-0.548,1.229-1.226,1.229c-0.677,0-1.225-0.554-1.225-1.229
			s0.548-1.225,1.225-1.225C34.945,403.28,35.493,403.829,35.493,404.505"/>
		<path fill="#FFFFFF" d="M40.461,404.505c0,0.676-0.548,1.229-1.225,1.229c-0.676,0-1.225-0.554-1.225-1.229
			s0.549-1.225,1.225-1.225C39.913,403.28,40.461,403.829,40.461,404.505"/>
		<path fill="#FFFFFF" d="M45.43,404.505c0,0.676-0.548,1.229-1.225,1.229c-0.676,0-1.225-0.554-1.225-1.229
			s0.549-1.225,1.225-1.225C44.882,403.28,45.43,403.829,45.43,404.505"/>
		<path fill="#FFFFFF" d="M33.009,407.601c0,0.683-0.548,1.229-1.224,1.229s-1.225-0.547-1.225-1.229
			c0-0.676,0.549-1.225,1.225-1.225S33.009,406.925,33.009,407.601"/>
		<path fill="#FFFFFF" d="M37.979,407.601c0,0.683-0.549,1.229-1.226,1.229c-0.676,0-1.224-0.547-1.224-1.229
			c0-0.676,0.548-1.225,1.224-1.225C37.43,406.376,37.979,406.925,37.979,407.601"/>
		<path fill="#FFFFFF" d="M42.945,407.601c0,0.683-0.549,1.229-1.225,1.229c-0.678,0-1.226-0.547-1.226-1.229
			c0-0.676,0.548-1.225,1.226-1.225C42.396,406.376,42.945,406.925,42.945,407.601"/>
		<path fill="#FFFFFF" d="M47.913,407.601c0,0.683-0.548,1.229-1.226,1.229c-0.676,0-1.224-0.547-1.224-1.229
			c0-0.676,0.548-1.225,1.224-1.225C47.365,406.376,47.913,406.925,47.913,407.601"/>
		<path fill="#FFFFFF" d="M50.396,404.505c0,0.676-0.549,1.229-1.226,1.229c-0.676,0-1.224-0.554-1.224-1.229
			s0.548-1.225,1.224-1.225C49.848,403.28,50.396,403.829,50.396,404.505"/>
		<g>
			
				<path fill="none" stroke="#FFFFFF" stroke-width="1.152" stroke-linecap="round" stroke-linejoin="round" stroke-miterlimit="10" d="
				M39.148,360.986v-5.11 M39.148,397.952v-32.744"/>
			
				<circle fill="none" stroke="#FFFFFF" stroke-width="1.152" stroke-linecap="round" stroke-linejoin="round" stroke-miterlimit="10" cx="39.148" cy="352.722" r="2.958"/>
			
				<path fill="none" stroke="#FFFFFF" stroke-width="1.152" stroke-linecap="round" stroke-linejoin="round" stroke-miterlimit="10" d="
				M50.387,401.292v-0.875c0-1.361-0.968-2.465-2.16-2.465H30.07c-1.192,0-2.158,1.104-2.158,2.465v0.875H50.387z"/>
			
				<path fill="none" stroke="#FFFFFF" stroke-width="1.152" stroke-linecap="round" stroke-linejoin="round" stroke-miterlimit="10" d="
				M26.2,365.208v-1.756c0-1.361,1.104-2.466,2.464-2.466h21.07c1.358,0,2.465,1.104,2.465,2.466v1.756H26.2z"/>
		</g>
	</g>
</g>
</svg>
