<?xml version="1.0" encoding="utf-8"?>
<!-- Generator: Adobe Illustrator 16.0.4, SVG Export Plug-In . SVG Version: 6.00 Build 0)  -->
<!DOCTYPE svg PUBLIC "-//W3C//DTD SVG 1.1//EN" "http://www.w3.org/Graphics/SVG/1.1/DTD/svg11.dtd">
<svg version="1.1" id="Layer_1" xmlns="http://www.w3.org/2000/svg" xmlns:xlink="http://www.w3.org/1999/xlink" x="0px" y="0px"
	 width="50px" height="750px" viewBox="0 0 50 750" enable-background="new 0 0 50 750" xml:space="preserve">
<rect y="150" fill="none" width="50" height="150"/>
<rect y="300" fill="none" width="50" height="150"/>
<rect y="450" fill="none" width="50" height="150"/>
<rect fill="none" width="50" height="150"/>
<rect y="600" fill="none" width="50" height="150"/>
<g>
	<path fill="#FFFFFF" d="M35.016,145H13.947c-1.678,0-3.041-1.364-3.041-3.041v-24.156l-5.021-7.311
		c-0.121-0.176-0.135-0.405-0.035-0.594c0.1-0.189,0.296-0.309,0.51-0.309h5.228V94.376c0-0.317,0.258-0.576,0.576-0.576h1.63
		l-2.17-7.561c-0.05-0.175-0.016-0.361,0.094-0.505c0.108-0.146,0.279-0.229,0.46-0.229h24.021c0.182,0,0.352,0.085,0.461,0.229
		c0.107,0.146,0.143,0.334,0.092,0.508l-2.201,7.559h1.661c0.317,0,0.576,0.258,0.576,0.576v2.133h1.19
		c1.68,0,3.043,1.364,3.043,3.041v8.051c0,0.317-0.258,0.575-0.576,0.575c-0.317,0-0.575-0.258-0.575-0.575v-8.051
		c0-1.042-0.849-1.889-1.892-1.889h-1.19v11.928h0.69c0.318,0,0.576,0.258,0.576,0.576v4.387h3.12c1.677,0,3.041,1.365,3.041,3.043
		V129.1c0,1.676-1.364,3.041-3.041,3.041h-3.12v9.912C38.055,144.008,37.032,145,35.016,145z M7.454,110.742l4.502,6.556
		c0.066,0.097,0.102,0.21,0.102,0.326v24.335c0,1.042,0.848,1.889,1.89,1.889h21.067c1.375,0,1.889-0.486,1.889-1.795v-31.31
		L7.454,110.742L7.454,110.742z M38.055,130.986h3.12c1.042,0,1.89-0.846,1.89-1.887v-11.506c0-1.042-0.848-1.889-1.89-1.889h-3.12
		V130.986z M12.739,109.59h22.895V94.952H12.739V109.59z M14.98,93.761l18.377,0.015l2.072-7.119H12.942L14.98,93.761z
		 M24.527,125.984c-1.213,0-2.2-0.986-2.2-2.2c0-0.304,0.061-0.597,0.179-0.872l1.532-2.523c0.104-0.171,0.291-0.275,0.492-0.275
		l0,0c0.2,0,0.388,0.104,0.491,0.277l1.479,2.43c0.012,0.021,0.021,0.041,0.032,0.062c0.129,0.284,0.192,0.588,0.192,0.902
		C26.729,124.998,25.74,125.984,24.527,125.984z M24.529,121.796l-1.002,1.646c-0.021,0.059-0.049,0.197-0.049,0.343
		c0,0.579,0.471,1.049,1.049,1.049c0.577,0,1.048-0.47,1.048-1.049c0-0.14-0.026-0.272-0.079-0.398L24.529,121.796z M24.527,117.975
		c-1.213,0-2.2-0.988-2.2-2.201c0-0.303,0.061-0.596,0.179-0.871l1.532-2.522c0.104-0.171,0.291-0.276,0.492-0.276l0,0
		c0.2,0,0.388,0.105,0.491,0.277l1.479,2.432c0.012,0.02,0.021,0.039,0.032,0.061c0.129,0.284,0.192,0.587,0.192,0.902
		C26.729,116.986,25.74,117.975,24.527,117.975z M24.529,113.786l-1.002,1.644c-0.021,0.06-0.049,0.199-0.049,0.344
		c0,0.578,0.471,1.049,1.049,1.049c0.577,0,1.048-0.471,1.048-1.049c0-0.137-0.027-0.273-0.079-0.397L24.529,113.786z"/>
</g>
<g>
	<path fill="#FFFFFF" d="M35.016,595H13.946c-1.678,0-3.041-1.364-3.041-3.041v-24.154l-5.021-7.312
		c-0.121-0.179-0.135-0.405-0.035-0.597c0.101-0.188,0.296-0.308,0.511-0.308h5.228v-15.213c0-0.317,0.258-0.576,0.576-0.576h1.63
		l-2.17-7.562c-0.05-0.174-0.016-0.361,0.094-0.506c0.108-0.146,0.279-0.229,0.46-0.229H36.2c0.182,0,0.352,0.086,0.461,0.229
		c0.106,0.146,0.144,0.334,0.092,0.508l-2.202,7.56h1.662c0.318,0,0.576,0.259,0.576,0.576v2.133h1.191
		c1.679,0,3.041,1.364,3.041,3.041v8.05c0,0.318-0.258,0.576-0.574,0.576c-0.318,0-0.576-0.258-0.576-0.576v-8.05
		c0-1.042-0.85-1.889-1.891-1.889h-1.191v11.928h0.691c0.317,0,0.576,0.258,0.576,0.576v4.387h3.119
		c1.678,0,3.041,1.364,3.041,3.042V579.1c0,1.676-1.363,3.041-3.041,3.041h-3.119v9.914C38.055,594.009,37.032,595,35.016,595z
		 M7.454,560.742l4.502,6.557c0.066,0.096,0.102,0.21,0.102,0.326v24.334c0,1.042,0.848,1.889,1.89,1.889h21.068
		c1.375,0,1.889-0.486,1.889-1.793v-31.312L7.454,560.742L7.454,560.742z M38.055,580.986h3.12c1.042,0,1.89-0.846,1.89-1.887
		v-11.507c0-1.042-0.848-1.89-1.89-1.89h-3.12V580.986z M12.739,559.59h22.895v-14.637H12.739V559.59z M14.979,543.762l18.378,0.014
		l2.072-7.117H12.941L14.979,543.762z"/>
	<path fill="#FFFFFF" d="M11.37,575.188c0,0-0.125,17.656,0,17.906c0.213,0.426,1.062,0.828,1.688,0.953s21.938-0.023,22.312-0.023
		s1.75-0.354,2-0.918c0.25-0.562,0-17.918,0-17.918H11.37z"/>
	<path fill="#FFFFFF" d="M24.527,564.119c-1.214,0-2.2-0.987-2.2-2.201c0-0.303,0.061-0.596,0.179-0.871l0.606-1.008
		c0.165-0.271,0.521-0.357,0.791-0.193c0.271,0.166,0.357,0.521,0.192,0.791l-0.568,0.938c-0.021,0.06-0.049,0.198-0.049,0.345
		c0,0.578,0.471,1.049,1.049,1.049c0.577,0,1.049-0.471,1.049-1.049c0-0.146-0.031-0.29-0.095-0.427l-0.575-0.942
		c-0.165-0.271-0.078-0.627,0.192-0.791c0.274-0.164,0.626-0.076,0.791,0.193l0.608,1.004c0.162,0.35,0.229,0.65,0.229,0.963
		C26.729,563.132,25.741,564.119,24.527,564.119z"/>
	<path fill="#FFFFFF" d="M24.526,571.986c-1.213,0-2.2-0.987-2.2-2.201c0-0.305,0.061-0.598,0.18-0.872l1.531-2.522
		c0.104-0.173,0.291-0.277,0.492-0.277l0,0c0.2,0,0.388,0.105,0.491,0.277l1.479,2.434c0.161,0.345,0.227,0.646,0.227,0.963
		C26.729,570.999,25.74,571.986,24.526,571.986z M24.529,567.796l-1.003,1.646c-0.021,0.061-0.049,0.199-0.049,0.346
		c0,0.576,0.471,1.049,1.049,1.049c0.578,0,1.049-0.472,1.049-1.049c0-0.148-0.03-0.293-0.092-0.428L24.529,567.796z"/>
</g>
<g>
	<path fill="#FFFFFF" d="M35.016,745H13.946c-1.678,0-3.041-1.364-3.041-3.041V717.8l-5.021-7.31
		c-0.121-0.179-0.135-0.405-0.035-0.597c0.101-0.188,0.296-0.308,0.511-0.308h5.228v-15.213c0-0.318,0.258-0.576,0.576-0.576h1.63
		l-2.17-7.562c-0.05-0.174-0.016-0.36,0.094-0.506c0.108-0.146,0.279-0.229,0.46-0.229H36.2c0.182,0,0.352,0.086,0.461,0.229
		c0.106,0.146,0.144,0.334,0.092,0.508l-2.202,7.561h1.662c0.318,0,0.576,0.258,0.576,0.576v2.133h1.191
		c1.679,0,3.041,1.364,3.041,3.041v8.05c0,0.318-0.258,0.576-0.574,0.576c-0.318,0-0.576-0.258-0.576-0.576v-8.05
		c0-1.042-0.85-1.889-1.891-1.889h-1.191v11.928h0.691c0.317,0,0.576,0.258,0.576,0.576v4.387h3.119
		c1.678,0,3.041,1.364,3.041,3.042v11.506c0,1.676-1.363,3.039-3.041,3.039h-3.119v9.913C38.055,744.008,37.032,745,35.016,745z
		 M7.454,710.74l4.502,6.555c0.066,0.096,0.102,0.21,0.102,0.326v24.338c0,1.042,0.848,1.889,1.89,1.889h21.068
		c1.375,0,1.889-0.485,1.889-1.797V710.74H7.454z M38.055,730.985h3.12c1.042,0,1.89-0.849,1.89-1.889v-11.506
		c0-1.042-0.848-1.89-1.89-1.89h-3.12V730.985z M12.739,709.588h22.895v-14.637H12.739V709.588z M14.979,693.76l18.378,0.015
		l2.072-7.119H12.941L14.979,693.76z"/>
	<path fill="#FFFFFF" d="M11.37,720.186c0,0-0.125,22.656,0,22.906c0.213,0.426,1.062,0.828,1.688,0.953s21.938-0.021,22.312-0.021
		s1.75-0.354,2-0.921c0.25-0.562,0-22.918,0-22.918H11.37z"/>
</g>
<g>
	<path fill="#FFFFFF" d="M35.016,445H13.947c-1.678,0-3.041-1.364-3.041-3.041v-24.154l-5.021-7.312
		c-0.121-0.179-0.135-0.405-0.035-0.597c0.101-0.188,0.296-0.308,0.511-0.308h5.228v-15.213c0-0.317,0.258-0.576,0.576-0.576h1.63
		l-2.17-7.562c-0.05-0.174-0.016-0.36,0.094-0.506c0.108-0.145,0.279-0.229,0.46-0.229H36.2c0.182,0,0.352,0.086,0.461,0.229
		c0.106,0.146,0.144,0.334,0.092,0.509L34.55,393.8h1.662c0.317,0,0.576,0.259,0.576,0.576v2.133h1.19
		c1.68,0,3.043,1.363,3.043,3.041v8.05c0,0.318-0.258,0.576-0.576,0.576c-0.317,0-0.575-0.258-0.575-0.576v-8.05
		c0-1.042-0.849-1.889-1.892-1.889h-1.19v11.928h0.69c0.318,0,0.576,0.259,0.576,0.576v4.387h3.12c1.677,0,3.041,1.364,3.041,3.042
		V429.1c0,1.676-1.364,3.041-3.041,3.041h-3.12v9.914C38.055,444.009,37.032,445,35.016,445z M7.454,410.742l4.502,6.557
		c0.066,0.096,0.102,0.21,0.102,0.326v24.334c0,1.042,0.848,1.889,1.89,1.889h21.067c1.375,0,1.889-0.486,1.889-1.793v-31.312
		L7.454,410.742L7.454,410.742z M38.055,430.986h3.12c1.042,0,1.89-0.846,1.89-1.887v-11.507c0-1.042-0.848-1.89-1.89-1.89h-3.12
		V430.986z M12.739,409.59h22.895v-14.637H12.739V409.59z M14.98,393.762l18.377,0.014l2.072-7.118H12.942L14.98,393.762z"/>
	<path fill="#FFFFFF" d="M11.37,433.188c0,0-0.125,9.656,0,9.906c0.213,0.426,1.062,0.828,1.688,0.953s21.938-0.023,22.312-0.023
		s1.75-0.354,2-0.918c0.25-0.562,0-9.918,0-9.918H11.37L11.37,433.188z"/>
	<path fill="#FFFFFF" d="M24.527,427.986c-1.213,0-2.2-0.987-2.2-2.201c0-0.305,0.061-0.598,0.18-0.872l1.531-2.522
		c0.104-0.173,0.291-0.277,0.492-0.277l0,0c0.2,0,0.388,0.105,0.491,0.277l1.479,2.434c0.161,0.346,0.227,0.648,0.227,0.963
		C26.729,426.999,25.74,427.986,24.527,427.986z M24.53,423.796l-1.003,1.646c-0.021,0.061-0.049,0.199-0.049,0.346
		c0,0.576,0.471,1.049,1.049,1.049c0.578,0,1.048-0.473,1.048-1.049c0-0.148-0.03-0.293-0.091-0.428L24.53,423.796z"/>
	<path fill="#FFFFFF" d="M24.527,420.236c-1.213,0-2.2-0.987-2.2-2.201c0-0.305,0.061-0.598,0.18-0.872l1.531-2.522
		c0.104-0.173,0.291-0.277,0.492-0.277l0,0c0.2,0,0.388,0.105,0.491,0.277l1.479,2.434c0.161,0.346,0.227,0.648,0.227,0.963
		C26.729,419.249,25.74,420.236,24.527,420.236z M24.53,416.046l-1.003,1.646c-0.021,0.061-0.049,0.199-0.049,0.346
		c0,0.576,0.471,1.049,1.049,1.049c0.578,0,1.048-0.473,1.048-1.049c0-0.148-0.03-0.293-0.091-0.428L24.53,416.046z"/>
</g>
<g>
	<g>
		<path fill="#FFFFFF" d="M35.016,295H13.946c-1.678,0-3.041-1.364-3.041-3.041v-24.156l-5.021-7.311
			c-0.121-0.176-0.135-0.405-0.035-0.594c0.101-0.189,0.296-0.309,0.511-0.309h5.228v-15.213c0-0.318,0.258-0.576,0.576-0.576h1.63
			l-2.17-7.562c-0.05-0.175-0.016-0.361,0.094-0.505c0.108-0.146,0.279-0.229,0.46-0.229H36.2c0.182,0,0.352,0.085,0.461,0.229
			c0.106,0.146,0.144,0.334,0.092,0.508l-2.202,7.56h1.662c0.318,0,0.576,0.259,0.576,0.576v2.132h1.191
			c1.679,0,3.041,1.364,3.041,3.041v8.051c0,0.317-0.258,0.575-0.574,0.575c-0.318,0-0.576-0.258-0.576-0.575v-8.051
			c0-1.042-0.85-1.889-1.891-1.889h-1.191v11.929h0.691c0.317,0,0.576,0.259,0.576,0.576v4.388h3.119
			c1.678,0,3.041,1.364,3.041,3.041v11.506c0,1.676-1.363,3.039-3.041,3.039h-3.119v9.914C38.055,294.008,37.032,295,35.016,295z
			 M7.454,260.742l4.502,6.556c0.066,0.097,0.102,0.21,0.102,0.326v24.335c0,1.042,0.848,1.889,1.89,1.889h21.068
			c1.375,0,1.889-0.486,1.889-1.795v-31.31L7.454,260.742L7.454,260.742z M38.055,280.986h3.12c1.042,0,1.89-0.846,1.89-1.887
			v-11.506c0-1.042-0.848-1.889-1.89-1.889h-3.12V280.986z M12.739,259.59h22.895v-14.637H12.739V259.59z M14.979,243.761
			l18.378,0.015l2.072-7.119H12.941L14.979,243.761z"/>
	</g>
	<path fill="#FFFFFF" d="M11.37,289.188c0,0-0.125,3.655,0,3.905c0.213,0.427,1.062,0.828,1.688,0.953s21.938-0.022,22.312-0.022
		s1.75-0.355,2-0.918c0.25-0.563,0-3.918,0-3.918H11.37z"/>
	<path fill="#FFFFFF" d="M24.526,275.984c-1.213,0-2.2-0.986-2.2-2.2c0-0.304,0.061-0.597,0.179-0.872l1.532-2.523
		c0.104-0.171,0.291-0.275,0.492-0.275l0,0c0.2,0,0.388,0.104,0.491,0.277l1.479,2.43c0.161,0.347,0.227,0.65,0.227,0.964
		C26.729,274.998,25.74,275.984,24.526,275.984z M24.529,271.795l-1.003,1.646c-0.021,0.059-0.049,0.197-0.049,0.343
		c0,0.579,0.471,1.049,1.049,1.049c0.578,0,1.049-0.47,1.049-1.049c0-0.149-0.03-0.292-0.092-0.427L24.529,271.795z"/>
	<path fill="#FFFFFF" d="M24.526,283.984c-1.213,0-2.2-0.986-2.2-2.2c0-0.304,0.061-0.597,0.179-0.872l1.532-2.523
		c0.104-0.171,0.291-0.275,0.492-0.275l0,0c0.2,0,0.388,0.104,0.491,0.277l1.479,2.43c0.161,0.347,0.227,0.65,0.227,0.964
		C26.729,282.998,25.74,283.984,24.526,283.984z M24.529,279.795l-1.003,1.646c-0.021,0.059-0.049,0.197-0.049,0.343
		c0,0.579,0.471,1.049,1.049,1.049c0.578,0,1.049-0.47,1.049-1.049c0-0.149-0.03-0.292-0.092-0.427L24.529,279.795z"/>
	<path fill="#FFFFFF" d="M24.526,267.975c-1.213,0-2.2-0.988-2.2-2.201c0-0.303,0.061-0.596,0.179-0.871l1.532-2.522
		c0.104-0.171,0.291-0.276,0.492-0.276l0,0c0.2,0,0.388,0.105,0.491,0.277l1.479,2.432c0.161,0.345,0.227,0.647,0.227,0.963
		C26.729,266.986,25.74,267.975,24.526,267.975z M24.529,263.785l-1.003,1.645c-0.021,0.06-0.049,0.199-0.049,0.344
		c0,0.578,0.471,1.049,1.049,1.049c0.578,0,1.049-0.471,1.049-1.049c0-0.146-0.031-0.295-0.092-0.426L24.529,263.785z"/>
</g>
<g id="Layer_3" display="none">
	<g display="inline">
		
			<path fill="none" stroke="#FFFFFF" stroke-width="1.152" stroke-linecap="round" stroke-linejoin="round" stroke-miterlimit="10" d="
			M37.725,20.987v-5.112 M37.725,57.952V25.207"/>
		
			<path fill="none" stroke="#FFFFFF" stroke-width="1.152" stroke-linecap="round" stroke-linejoin="round" stroke-miterlimit="10" d="
			M48.962,61.291v-0.874c0-1.361-0.967-2.465-2.16-2.465H28.646c-1.192,0-2.158,1.104-2.158,2.465v0.874H48.962z M24.776,25.207
			v-1.755c0-1.361,1.103-2.465,2.464-2.465h21.07c1.36,0,2.465,1.104,2.465,2.465v1.755H24.776z M50.773,36.334h3.697
			c1.36,0,2.465,1.104,2.465,2.465v14.385c0,1.361-1.104,2.464-2.465,2.464h-3.697 M50.773,28.03v39.801
			c0,2.001-1.103,2.406-2.463,2.406H27.24c-1.361,0-2.465-1.104-2.465-2.466V35.489l-5.122-7.459H50.773z"/>
		<path fill="#FFFFFF" d="M29.014,64.504c0,0.677-0.549,1.225-1.225,1.225s-1.225-0.548-1.225-1.225
			c0-0.676,0.549-1.224,1.225-1.224S29.014,63.828,29.014,64.504"/>
		<path fill="#FFFFFF" d="M33.98,64.504c0,0.677-0.547,1.225-1.224,1.225c-0.676,0-1.224-0.548-1.224-1.225
			c0-0.676,0.548-1.224,1.224-1.224C33.434,63.28,33.98,63.828,33.98,64.504"/>
		<path fill="#FFFFFF" d="M38.949,64.504c0,0.677-0.549,1.225-1.225,1.225s-1.224-0.548-1.224-1.225
			c0-0.676,0.548-1.224,1.224-1.224S38.949,63.828,38.949,64.504"/>
		
			<circle fill="none" stroke="#FFFFFF" stroke-width="1.152" stroke-linecap="round" stroke-linejoin="round" stroke-miterlimit="10" cx="37.725" cy="12.721" r="2.958"/>
		<path fill="#FFFFFF" d="M43.917,64.504c0,0.677-0.548,1.225-1.224,1.225s-1.225-0.548-1.225-1.225
			c0-0.676,0.549-1.224,1.225-1.224S43.917,63.828,43.917,64.504"/>
		<path fill="#FFFFFF" d="M31.497,67.601c0,0.677-0.548,1.224-1.224,1.224s-1.225-0.547-1.225-1.224
			c0-0.677,0.549-1.225,1.225-1.225S31.497,66.924,31.497,67.601"/>
		<path fill="#FFFFFF" d="M36.465,67.601c0,0.677-0.548,1.224-1.224,1.224c-0.677,0-1.224-0.547-1.224-1.224
			c0-0.677,0.547-1.225,1.224-1.225C35.917,66.376,36.465,66.924,36.465,67.601"/>
		<path fill="#FFFFFF" d="M41.434,67.601c0,0.677-0.549,1.224-1.225,1.224s-1.225-0.547-1.225-1.224
			c0-0.677,0.549-1.225,1.225-1.225S41.434,66.924,41.434,67.601"/>
		<path fill="#FFFFFF" d="M46.4,67.601c0,0.677-0.547,1.224-1.224,1.224c-0.676,0-1.224-0.547-1.224-1.224
			c0-0.677,0.548-1.225,1.224-1.225C45.854,66.376,46.4,66.924,46.4,67.601"/>
		<path fill="#FFFFFF" d="M48.885,64.504c0,0.677-0.548,1.225-1.224,1.225c-0.677,0-1.224-0.548-1.224-1.225
			c0-0.676,0.547-1.224,1.224-1.224C48.337,63.28,48.885,63.828,48.885,64.504"/>
	</g>
	<g display="inline">
		
			<path fill="none" stroke="#FFFFFF" stroke-width="1.152" stroke-linecap="round" stroke-linejoin="round" stroke-miterlimit="10" d="
			M50.773,126.334h3.697c1.36,0,2.465,1.104,2.465,2.465v14.385c0,1.361-1.104,2.464-2.465,2.464h-3.697 M50.773,118.03v39.801
			c0,2.001-1.103,2.406-2.463,2.406H27.24c-1.361,0-2.465-1.104-2.465-2.466v-32.282l-5.122-7.459H50.773z"/>
		<path fill="#FFFFFF" d="M29.014,154.504c0,0.677-0.549,1.225-1.225,1.225s-1.225-0.548-1.225-1.225
			c0-0.676,0.549-1.224,1.225-1.224S29.014,153.828,29.014,154.504"/>
		<path fill="#FFFFFF" d="M33.98,154.504c0,0.677-0.547,1.225-1.224,1.225c-0.676,0-1.224-0.548-1.224-1.225
			c0-0.676,0.548-1.224,1.224-1.224C33.434,153.28,33.98,153.828,33.98,154.504"/>
		<path fill="#FFFFFF" d="M38.949,154.504c0,0.677-0.549,1.225-1.225,1.225s-1.224-0.548-1.224-1.225
			c0-0.676,0.548-1.224,1.224-1.224S38.949,153.828,38.949,154.504"/>
		<path fill="#FFFFFF" d="M43.917,154.504c0,0.677-0.548,1.225-1.224,1.225s-1.225-0.548-1.225-1.225
			c0-0.676,0.549-1.224,1.225-1.224S43.917,153.828,43.917,154.504"/>
		<path fill="#FFFFFF" d="M31.497,157.601c0,0.677-0.548,1.224-1.224,1.224s-1.225-0.547-1.225-1.224
			c0-0.677,0.549-1.225,1.225-1.225S31.497,156.924,31.497,157.601"/>
		<path fill="#FFFFFF" d="M36.465,157.601c0,0.677-0.548,1.224-1.224,1.224c-0.677,0-1.224-0.547-1.224-1.224
			c0-0.677,0.547-1.225,1.224-1.225C35.917,156.376,36.465,156.924,36.465,157.601"/>
		<path fill="#FFFFFF" d="M41.434,157.601c0,0.677-0.549,1.224-1.225,1.224s-1.225-0.547-1.225-1.224
			c0-0.677,0.549-1.225,1.225-1.225S41.434,156.924,41.434,157.601"/>
		<path fill="#FFFFFF" d="M46.4,157.601c0,0.677-0.547,1.224-1.224,1.224c-0.676,0-1.224-0.547-1.224-1.224
			c0-0.677,0.548-1.225,1.224-1.225C45.854,156.376,46.4,156.924,46.4,157.601"/>
		<path fill="#FFFFFF" d="M48.885,154.504c0,0.677-0.548,1.225-1.224,1.225c-0.677,0-1.224-0.548-1.224-1.225
			c0-0.676,0.547-1.224,1.224-1.224C48.337,153.28,48.885,153.828,48.885,154.504"/>
		<path fill="#FFFFFF" d="M29.014,147.504c0,0.677-0.549,1.225-1.225,1.225s-1.225-0.548-1.225-1.225
			c0-0.676,0.549-1.224,1.225-1.224S29.014,146.828,29.014,147.504"/>
		<path fill="#FFFFFF" d="M33.98,147.504c0,0.677-0.547,1.225-1.224,1.225c-0.676,0-1.224-0.548-1.224-1.225
			c0-0.676,0.548-1.224,1.224-1.224C33.434,146.28,33.98,146.828,33.98,147.504"/>
		<path fill="#FFFFFF" d="M38.949,147.504c0,0.677-0.549,1.225-1.225,1.225s-1.224-0.548-1.224-1.225
			c0-0.676,0.548-1.224,1.224-1.224S38.949,146.828,38.949,147.504"/>
		<path fill="#FFFFFF" d="M43.917,147.504c0,0.677-0.548,1.225-1.224,1.225s-1.225-0.548-1.225-1.225
			c0-0.676,0.549-1.224,1.225-1.224S43.917,146.828,43.917,147.504"/>
		<path fill="#FFFFFF" d="M31.497,150.601c0,0.677-0.548,1.224-1.224,1.224s-1.225-0.547-1.225-1.224
			c0-0.677,0.549-1.225,1.225-1.225S31.497,149.924,31.497,150.601"/>
		<path fill="#FFFFFF" d="M36.465,150.601c0,0.677-0.548,1.224-1.224,1.224c-0.677,0-1.224-0.547-1.224-1.224
			c0-0.677,0.547-1.225,1.224-1.225C35.917,149.376,36.465,149.924,36.465,150.601"/>
		<path fill="#FFFFFF" d="M41.434,150.601c0,0.677-0.549,1.224-1.225,1.224s-1.225-0.547-1.225-1.224
			c0-0.677,0.549-1.225,1.225-1.225S41.434,149.924,41.434,150.601"/>
		<path fill="#FFFFFF" d="M46.4,150.601c0,0.677-0.547,1.224-1.224,1.224c-0.676,0-1.224-0.547-1.224-1.224
			c0-0.677,0.548-1.225,1.224-1.225C45.854,149.376,46.4,149.924,46.4,150.601"/>
		<path fill="#FFFFFF" d="M48.885,147.504c0,0.677-0.548,1.225-1.224,1.225c-0.677,0-1.224-0.548-1.224-1.225
			c0-0.676,0.547-1.224,1.224-1.224C48.337,146.28,48.885,146.828,48.885,147.504"/>
		<path fill="#FFFFFF" d="M29.014,140.504c0,0.677-0.549,1.225-1.225,1.225s-1.225-0.548-1.225-1.225
			c0-0.676,0.549-1.224,1.225-1.224S29.014,139.828,29.014,140.504"/>
		<path fill="#FFFFFF" d="M33.98,140.504c0,0.677-0.547,1.225-1.224,1.225c-0.676,0-1.224-0.548-1.224-1.225
			c0-0.676,0.548-1.224,1.224-1.224C33.434,139.28,33.98,139.828,33.98,140.504"/>
		<path fill="#FFFFFF" d="M38.949,140.504c0,0.677-0.549,1.225-1.225,1.225s-1.224-0.548-1.224-1.225
			c0-0.676,0.548-1.224,1.224-1.224S38.949,139.828,38.949,140.504"/>
		<path fill="#FFFFFF" d="M43.917,140.504c0,0.677-0.548,1.225-1.224,1.225s-1.225-0.548-1.225-1.225
			c0-0.676,0.549-1.224,1.225-1.224S43.917,139.828,43.917,140.504"/>
		<path fill="#FFFFFF" d="M31.497,143.601c0,0.677-0.548,1.224-1.224,1.224s-1.225-0.547-1.225-1.224
			c0-0.677,0.549-1.225,1.225-1.225S31.497,142.924,31.497,143.601"/>
		<path fill="#FFFFFF" d="M36.465,143.601c0,0.677-0.548,1.224-1.224,1.224c-0.677,0-1.224-0.547-1.224-1.224
			c0-0.677,0.547-1.225,1.224-1.225C35.917,142.376,36.465,142.924,36.465,143.601"/>
		<path fill="#FFFFFF" d="M41.434,143.601c0,0.677-0.549,1.224-1.225,1.224s-1.225-0.547-1.225-1.224
			c0-0.677,0.549-1.225,1.225-1.225S41.434,142.924,41.434,143.601"/>
		<path fill="#FFFFFF" d="M46.4,143.601c0,0.677-0.547,1.224-1.224,1.224c-0.676,0-1.224-0.547-1.224-1.224
			c0-0.677,0.548-1.225,1.224-1.225C45.854,142.376,46.4,142.924,46.4,143.601"/>
		<path fill="#FFFFFF" d="M31.497,136.601c0,0.677-0.548,1.224-1.224,1.224s-1.225-0.547-1.225-1.224
			c0-0.677,0.549-1.225,1.225-1.225S31.497,135.924,31.497,136.601"/>
		<path fill="#FFFFFF" d="M36.465,136.601c0,0.677-0.548,1.224-1.224,1.224c-0.677,0-1.224-0.547-1.224-1.224
			c0-0.677,0.547-1.225,1.224-1.225C35.917,135.376,36.465,135.924,36.465,136.601"/>
		<path fill="#FFFFFF" d="M41.434,136.601c0,0.677-0.549,1.224-1.225,1.224s-1.225-0.547-1.225-1.224
			c0-0.677,0.549-1.225,1.225-1.225S41.434,135.924,41.434,136.601"/>
		<path fill="#FFFFFF" d="M46.4,136.601c0,0.677-0.547,1.224-1.224,1.224c-0.676,0-1.224-0.547-1.224-1.224
			c0-0.677,0.548-1.225,1.224-1.225C45.854,135.376,46.4,135.924,46.4,136.601"/>
		<path fill="#FFFFFF" d="M48.885,140.504c0,0.677-0.548,1.225-1.224,1.225c-0.677,0-1.224-0.548-1.224-1.225
			c0-0.676,0.547-1.224,1.224-1.224C48.337,139.28,48.885,139.828,48.885,140.504"/>
		<g>
			
				<path fill="none" stroke="#FFFFFF" stroke-width="1.152" stroke-linecap="round" stroke-linejoin="round" stroke-miterlimit="10" d="
				M37.725,110.987V86.875 M37.725,128.952v-13.745"/>
			
				<circle fill="none" stroke="#FFFFFF" stroke-width="1.152" stroke-linecap="round" stroke-linejoin="round" stroke-miterlimit="10" cx="37.725" cy="83.721" r="2.958"/>
			
				<path fill="none" stroke="#FFFFFF" stroke-width="1.152" stroke-linecap="round" stroke-linejoin="round" stroke-miterlimit="10" d="
				M48.962,132.291v-0.874c0-1.361-0.967-2.465-2.16-2.465H28.646c-1.192,0-2.158,1.104-2.158,2.465v0.874H48.962z"/>
			
				<path fill="none" stroke="#FFFFFF" stroke-width="1.152" stroke-linecap="round" stroke-linejoin="round" stroke-miterlimit="10" d="
				M24.776,115.207v-1.755c0-1.361,1.103-2.465,2.464-2.465h21.07c1.36,0,2.465,1.104,2.465,2.465v1.755H24.776z"/>
		</g>
	</g>
	<g display="inline">
		<path fill="#FFFFFF" d="M36,219H25v5.812l0,0v-0.146c0-1.361,1.779-2.667,2.973-2.667H36v-0.298V219z"/>
		<path fill="#FFFFFF" d="M40,219h11v5.812l0,0v-0.146c0-1.361-0.625-2.667-1.816-2.667H40v-0.298V219z"/>
		
			<path fill="none" stroke="#FFFFFF" stroke-width="1.152" stroke-linecap="round" stroke-linejoin="round" stroke-miterlimit="10" d="
			M51.198,216.334h3.696c1.36,0,2.465,1.104,2.465,2.465v14.385c0,1.361-1.104,2.465-2.465,2.465h-3.696 M51.198,208.03v39.801
			c0,2.001-1.103,2.405-2.464,2.405h-21.07c-1.361,0-2.465-1.104-2.465-2.465v-32.282l-5.122-7.459H51.198z"/>
		<path fill="#FFFFFF" d="M29.525,244.504c0,0.678-0.549,1.225-1.225,1.225s-1.224-0.547-1.224-1.225
			c0-0.676,0.548-1.225,1.224-1.225S29.525,243.828,29.525,244.504"/>
		<path fill="#FFFFFF" d="M34.493,244.504c0,0.678-0.548,1.225-1.224,1.225c-0.677,0-1.225-0.547-1.225-1.225
			c0-0.676,0.548-1.225,1.225-1.225C33.945,243.279,34.493,243.828,34.493,244.504"/>
		<path fill="#FFFFFF" d="M39.461,244.504c0,0.678-0.548,1.225-1.225,1.225c-0.676,0-1.223-0.547-1.223-1.225
			c0-0.676,0.547-1.225,1.223-1.225C38.913,243.279,39.461,243.828,39.461,244.504"/>
		<path fill="#FFFFFF" d="M44.43,244.504c0,0.678-0.549,1.225-1.225,1.225s-1.225-0.547-1.225-1.225
			c0-0.676,0.549-1.225,1.225-1.225S44.43,243.828,44.43,244.504"/>
		<path fill="#FFFFFF" d="M32.009,247.602c0,0.676-0.548,1.227-1.224,1.227s-1.225-0.551-1.225-1.227
			c0-0.678,0.549-1.226,1.225-1.226S32.009,246.924,32.009,247.602"/>
		<path fill="#FFFFFF" d="M36.977,247.602c0,0.676-0.547,1.227-1.224,1.227c-0.676,0-1.224-0.551-1.224-1.227
			c0-0.678,0.548-1.226,1.224-1.226C36.43,246.376,36.977,246.924,36.977,247.602"/>
		<path fill="#FFFFFF" d="M41.945,247.602c0,0.676-0.549,1.227-1.225,1.227s-1.224-0.551-1.224-1.227
			c0-0.678,0.548-1.226,1.224-1.226S41.945,246.924,41.945,247.602"/>
		<path fill="#FFFFFF" d="M46.913,247.602c0,0.676-0.548,1.227-1.224,1.227s-1.225-0.551-1.225-1.227
			c0-0.678,0.549-1.226,1.225-1.226S46.913,246.924,46.913,247.602"/>
		<path fill="#FFFFFF" d="M49.396,244.504c0,0.678-0.547,1.225-1.224,1.225c-0.676,0-1.224-0.547-1.224-1.225
			c0-0.676,0.548-1.225,1.224-1.225C48.85,243.279,49.396,243.828,49.396,244.504"/>
		<path fill="#FFFFFF" d="M29.525,237.504c0,0.678-0.549,1.225-1.225,1.225s-1.224-0.547-1.224-1.225
			c0-0.676,0.548-1.225,1.224-1.225S29.525,236.828,29.525,237.504"/>
		<path fill="#FFFFFF" d="M34.493,237.504c0,0.678-0.548,1.225-1.224,1.225c-0.677,0-1.225-0.547-1.225-1.225
			c0-0.676,0.548-1.225,1.225-1.225C33.945,236.279,34.493,236.828,34.493,237.504"/>
		<path fill="#FFFFFF" d="M39.461,237.504c0,0.678-0.548,1.225-1.225,1.225c-0.676,0-1.223-0.547-1.223-1.225
			c0-0.676,0.547-1.225,1.223-1.225C38.913,236.279,39.461,236.828,39.461,237.504"/>
		<path fill="#FFFFFF" d="M44.43,237.504c0,0.678-0.549,1.225-1.225,1.225s-1.225-0.547-1.225-1.225
			c0-0.676,0.549-1.225,1.225-1.225S44.43,236.828,44.43,237.504"/>
		<path fill="#FFFFFF" d="M32.009,240.602c0,0.676-0.548,1.227-1.224,1.227s-1.225-0.551-1.225-1.227
			c0-0.678,0.549-1.226,1.225-1.226S32.009,239.924,32.009,240.602"/>
		<path fill="#FFFFFF" d="M36.977,240.602c0,0.676-0.547,1.227-1.224,1.227c-0.676,0-1.224-0.551-1.224-1.227
			c0-0.678,0.548-1.226,1.224-1.226C36.43,239.376,36.977,239.924,36.977,240.602"/>
		<path fill="#FFFFFF" d="M41.945,240.602c0,0.676-0.549,1.227-1.225,1.227s-1.224-0.551-1.224-1.227
			c0-0.678,0.548-1.226,1.224-1.226S41.945,239.924,41.945,240.602"/>
		<path fill="#FFFFFF" d="M46.913,240.602c0,0.676-0.548,1.227-1.224,1.227s-1.225-0.551-1.225-1.227
			c0-0.678,0.549-1.226,1.225-1.226S46.913,239.924,46.913,240.602"/>
		<path fill="#FFFFFF" d="M49.396,237.504c0,0.678-0.547,1.225-1.224,1.225c-0.676,0-1.224-0.547-1.224-1.225
			c0-0.676,0.548-1.225,1.224-1.225C48.85,236.279,49.396,236.828,49.396,237.504"/>
		<path fill="#FFFFFF" d="M29.525,230.504c0,0.678-0.549,1.225-1.225,1.225s-1.224-0.547-1.224-1.225
			c0-0.676,0.548-1.225,1.224-1.225S29.525,229.828,29.525,230.504"/>
		<path fill="#FFFFFF" d="M34.493,230.504c0,0.678-0.548,1.225-1.224,1.225c-0.677,0-1.225-0.547-1.225-1.225
			c0-0.676,0.548-1.225,1.225-1.225C33.945,229.279,34.493,229.828,34.493,230.504"/>
		<path fill="#FFFFFF" d="M39.461,230.504c0,0.678-0.548,1.225-1.225,1.225c-0.676,0-1.223-0.547-1.223-1.225
			c0-0.676,0.547-1.225,1.223-1.225C38.913,229.279,39.461,229.828,39.461,230.504"/>
		<path fill="#FFFFFF" d="M44.43,230.504c0,0.678-0.549,1.225-1.225,1.225s-1.225-0.547-1.225-1.225
			c0-0.676,0.549-1.225,1.225-1.225S44.43,229.828,44.43,230.504"/>
		<path fill="#FFFFFF" d="M32.009,233.602c0,0.676-0.548,1.227-1.224,1.227s-1.225-0.551-1.225-1.227
			c0-0.678,0.549-1.226,1.225-1.226S32.009,232.924,32.009,233.602"/>
		<path fill="#FFFFFF" d="M36.977,233.602c0,0.676-0.547,1.227-1.224,1.227c-0.676,0-1.224-0.551-1.224-1.227
			c0-0.678,0.548-1.226,1.224-1.226C36.43,232.376,36.977,232.924,36.977,233.602"/>
		<path fill="#FFFFFF" d="M41.945,233.602c0,0.676-0.549,1.227-1.225,1.227s-1.224-0.551-1.224-1.227
			c0-0.678,0.548-1.226,1.224-1.226S41.945,232.924,41.945,233.602"/>
		<path fill="#FFFFFF" d="M46.913,233.602c0,0.676-0.548,1.227-1.224,1.227s-1.225-0.551-1.225-1.227
			c0-0.678,0.549-1.226,1.225-1.226S46.913,232.924,46.913,233.602"/>
		<path fill="#FFFFFF" d="M49.396,230.504c0,0.678-0.547,1.225-1.224,1.225c-0.676,0-1.224-0.547-1.224-1.225
			c0-0.676,0.548-1.225,1.224-1.225C48.85,229.279,49.396,229.828,49.396,230.504"/>
		
			<path fill="none" stroke="#FFFFFF" stroke-width="1.152" stroke-linecap="round" stroke-linejoin="round" stroke-miterlimit="10" d="
			M38.148,200.987v-19.112 M38.148,223.952v-18.745"/>
		
			<circle fill="none" stroke="#FFFFFF" stroke-width="1.152" stroke-linecap="round" stroke-linejoin="round" stroke-miterlimit="10" cx="38.148" cy="178.721" r="2.958"/>
		
			<path fill="none" stroke="#FFFFFF" stroke-width="1.152" stroke-linecap="round" stroke-linejoin="round" stroke-miterlimit="10" d="
			M49.387,227.291v-0.874c0-1.36-0.968-2.465-2.16-2.465H29.07c-1.192,0-2.158,1.104-2.158,2.465v0.874H49.387z"/>
		
			<path fill="none" stroke="#FFFFFF" stroke-width="1.152" stroke-linecap="round" stroke-linejoin="round" stroke-miterlimit="10" d="
			M25.2,205.207v-1.755c0-1.361,1.103-2.465,2.464-2.465h21.07c1.361,0,2.465,1.104,2.465,2.465v1.755H25.2z"/>
	</g>
	<g display="inline">
		<path fill="#FFFFFF" d="M36,299H25v12.812v-7v6.854c0-1.361,1.779-2.667,2.973-2.667H36v-0.298V299z"/>
		<path fill="#FFFFFF" d="M40,299h11v12.812v-7v6.854c0-1.361-0.625-2.667-1.816-2.667H40v-7.298V299z"/>
		
			<path fill="none" stroke="#FFFFFF" stroke-width="1.152" stroke-linecap="round" stroke-linejoin="round" stroke-miterlimit="10" d="
			M51.198,296.334h3.696c1.36,0,2.465,1.104,2.465,2.465v14.385c0,1.361-1.104,2.465-2.465,2.465h-3.696 M51.198,288.029v39.802
			c0,2.001-1.103,2.405-2.464,2.405h-21.07c-1.361,0-2.465-1.104-2.465-2.465v-32.283l-5.122-7.459H51.198L51.198,288.029z"/>
		<path fill="#FFFFFF" d="M29.525,324.504c0,0.678-0.549,1.225-1.225,1.225s-1.224-0.547-1.224-1.225
			c0-0.676,0.548-1.225,1.224-1.225S29.525,323.828,29.525,324.504"/>
		<path fill="#FFFFFF" d="M34.493,324.504c0,0.678-0.548,1.225-1.224,1.225c-0.677,0-1.225-0.547-1.225-1.225
			c0-0.676,0.548-1.225,1.225-1.225C33.945,323.279,34.493,323.828,34.493,324.504"/>
		<path fill="#FFFFFF" d="M39.461,324.504c0,0.678-0.548,1.225-1.225,1.225c-0.676,0-1.223-0.547-1.223-1.225
			c0-0.676,0.547-1.225,1.223-1.225C38.913,323.279,39.461,323.828,39.461,324.504"/>
		<path fill="#FFFFFF" d="M44.43,324.504c0,0.678-0.549,1.225-1.225,1.225s-1.225-0.547-1.225-1.225
			c0-0.676,0.549-1.225,1.225-1.225S44.43,323.828,44.43,324.504"/>
		<path fill="#FFFFFF" d="M32.009,327.602c0,0.676-0.548,1.227-1.224,1.227s-1.225-0.551-1.225-1.227
			c0-0.678,0.549-1.226,1.225-1.226S32.009,326.924,32.009,327.602"/>
		<path fill="#FFFFFF" d="M36.977,327.602c0,0.676-0.547,1.227-1.224,1.227c-0.676,0-1.224-0.551-1.224-1.227
			c0-0.678,0.548-1.226,1.224-1.226C36.43,326.376,36.977,326.924,36.977,327.602"/>
		<path fill="#FFFFFF" d="M41.945,327.602c0,0.676-0.549,1.227-1.225,1.227s-1.224-0.551-1.224-1.227
			c0-0.678,0.548-1.226,1.224-1.226S41.945,326.924,41.945,327.602"/>
		<path fill="#FFFFFF" d="M46.913,327.602c0,0.676-0.548,1.227-1.224,1.227s-1.225-0.551-1.225-1.227
			c0-0.678,0.549-1.226,1.225-1.226S46.913,326.924,46.913,327.602"/>
		<path fill="#FFFFFF" d="M49.396,324.504c0,0.678-0.547,1.225-1.224,1.225c-0.676,0-1.224-0.547-1.224-1.225
			c0-0.676,0.548-1.225,1.224-1.225C48.85,323.279,49.396,323.828,49.396,324.504"/>
		<path fill="#FFFFFF" d="M29.525,317.504c0,0.678-0.549,1.225-1.225,1.225s-1.224-0.547-1.224-1.225
			c0-0.676,0.548-1.225,1.224-1.225S29.525,316.828,29.525,317.504"/>
		<path fill="#FFFFFF" d="M34.493,317.504c0,0.678-0.548,1.225-1.224,1.225c-0.677,0-1.225-0.547-1.225-1.225
			c0-0.676,0.548-1.225,1.225-1.225C33.945,316.279,34.493,316.828,34.493,317.504"/>
		<path fill="#FFFFFF" d="M39.461,317.504c0,0.678-0.548,1.225-1.225,1.225c-0.676,0-1.223-0.547-1.223-1.225
			c0-0.676,0.547-1.225,1.223-1.225C38.913,316.279,39.461,316.828,39.461,317.504"/>
		<path fill="#FFFFFF" d="M44.43,317.504c0,0.678-0.549,1.225-1.225,1.225s-1.225-0.547-1.225-1.225
			c0-0.676,0.549-1.225,1.225-1.225S44.43,316.828,44.43,317.504"/>
		<path fill="#FFFFFF" d="M32.009,320.602c0,0.676-0.548,1.227-1.224,1.227s-1.225-0.551-1.225-1.227
			c0-0.678,0.549-1.226,1.225-1.226S32.009,319.924,32.009,320.602"/>
		<path fill="#FFFFFF" d="M36.977,320.602c0,0.676-0.547,1.227-1.224,1.227c-0.676,0-1.224-0.551-1.224-1.227
			c0-0.678,0.548-1.226,1.224-1.226C36.43,319.376,36.977,319.924,36.977,320.602"/>
		<path fill="#FFFFFF" d="M41.945,320.602c0,0.676-0.549,1.227-1.225,1.227s-1.224-0.551-1.224-1.227
			c0-0.678,0.548-1.226,1.224-1.226S41.945,319.924,41.945,320.602"/>
		<path fill="#FFFFFF" d="M46.913,320.602c0,0.676-0.548,1.227-1.224,1.227s-1.225-0.551-1.225-1.227
			c0-0.678,0.549-1.226,1.225-1.226S46.913,319.924,46.913,320.602"/>
		<path fill="#FFFFFF" d="M49.396,317.504c0,0.678-0.547,1.225-1.224,1.225c-0.676,0-1.224-0.547-1.224-1.225
			c0-0.676,0.548-1.225,1.224-1.225C48.85,316.279,49.396,316.828,49.396,317.504"/>
		
			<path fill="none" stroke="#FFFFFF" stroke-width="1.152" stroke-linecap="round" stroke-linejoin="round" stroke-miterlimit="10" d="
			M38.148,280.986v-12.111 M38.148,310.952v-25.745"/>
		
			<circle fill="none" stroke="#FFFFFF" stroke-width="1.152" stroke-linecap="round" stroke-linejoin="round" stroke-miterlimit="10" cx="38.148" cy="265.722" r="2.958"/>
		
			<path fill="none" stroke="#FFFFFF" stroke-width="1.152" stroke-linecap="round" stroke-linejoin="round" stroke-miterlimit="10" d="
			M49.387,314.291v-0.874c0-1.36-0.968-2.465-2.16-2.465H29.07c-1.192,0-2.158,1.104-2.158,2.465v0.874H49.387z"/>
		
			<path fill="none" stroke="#FFFFFF" stroke-width="1.152" stroke-linecap="round" stroke-linejoin="round" stroke-miterlimit="10" d="
			M25.2,285.207v-1.755c0-1.361,1.103-2.468,2.464-2.468h21.07c1.361,0,2.465,1.104,2.465,2.468v1.755H25.2z"/>
	</g>
	<g display="inline">
		<path fill="#FFFFFF" d="M37,379H26v19.812v-14v13.854c0-1.361,1.777-2.667,2.973-2.667H37v-7.298V379z"/>
		<path fill="#FFFFFF" d="M41,379h11v19.812v-14v13.854c0-1.361-0.624-2.667-1.816-2.667H41v-14.298V379z"/>
		
			<path fill="none" stroke="#FFFFFF" stroke-width="1.152" stroke-linecap="round" stroke-linejoin="round" stroke-miterlimit="10" d="
			M52.198,376.335h3.696c1.359,0,2.465,1.104,2.465,2.465v14.386c0,1.36-1.104,2.463-2.465,2.463h-3.696 M52.198,368.029v39.802
			c0,2.002-1.104,2.406-2.464,2.406h-21.07c-1.359,0-2.465-1.104-2.465-2.465v-32.283l-5.122-7.46H52.198L52.198,368.029z"/>
		<path fill="#FFFFFF" d="M30.525,404.505c0,0.676-0.549,1.229-1.225,1.229c-0.677,0-1.225-0.553-1.225-1.229
			s0.548-1.225,1.225-1.225C29.979,403.28,30.525,403.829,30.525,404.505"/>
		<path fill="#FFFFFF" d="M35.493,404.505c0,0.676-0.548,1.229-1.226,1.229c-0.676,0-1.224-0.553-1.224-1.229
			s0.548-1.225,1.224-1.225C34.945,403.28,35.493,403.829,35.493,404.505"/>
		<path fill="#FFFFFF" d="M40.461,404.505c0,0.676-0.548,1.229-1.225,1.229c-0.676,0-1.225-0.553-1.225-1.229
			s0.549-1.225,1.225-1.225C39.913,403.28,40.461,403.829,40.461,404.505"/>
		<path fill="#FFFFFF" d="M45.43,404.505c0,0.676-0.548,1.229-1.225,1.229c-0.676,0-1.225-0.553-1.225-1.229
			s0.549-1.225,1.225-1.225C44.882,403.28,45.43,403.829,45.43,404.505"/>
		<path fill="#FFFFFF" d="M33.009,407.601c0,0.682-0.548,1.229-1.224,1.229s-1.225-0.547-1.225-1.229
			c0-0.676,0.549-1.225,1.225-1.225S33.009,406.925,33.009,407.601"/>
		<path fill="#FFFFFF" d="M37.979,407.601c0,0.682-0.549,1.229-1.226,1.229c-0.676,0-1.224-0.547-1.224-1.229
			c0-0.676,0.548-1.225,1.224-1.225C37.43,406.376,37.979,406.925,37.979,407.601"/>
		<path fill="#FFFFFF" d="M42.945,407.601c0,0.682-0.549,1.229-1.225,1.229c-0.677,0-1.225-0.547-1.225-1.229
			c0-0.676,0.548-1.225,1.225-1.225C42.396,406.376,42.945,406.925,42.945,407.601"/>
		<path fill="#FFFFFF" d="M47.913,407.601c0,0.682-0.548,1.229-1.226,1.229c-0.676,0-1.223-0.547-1.223-1.229
			c0-0.676,0.547-1.225,1.223-1.225C47.365,406.376,47.913,406.925,47.913,407.601"/>
		<path fill="#FFFFFF" d="M50.396,404.505c0,0.676-0.549,1.229-1.225,1.229s-1.224-0.553-1.224-1.229s0.548-1.225,1.224-1.225
			S50.396,403.829,50.396,404.505"/>
		<g>
			
				<path fill="none" stroke="#FFFFFF" stroke-width="1.152" stroke-linecap="round" stroke-linejoin="round" stroke-miterlimit="10" d="
				M39.148,360.986v-5.11 M39.148,397.952v-32.744"/>
			
				<circle fill="none" stroke="#FFFFFF" stroke-width="1.152" stroke-linecap="round" stroke-linejoin="round" stroke-miterlimit="10" cx="39.148" cy="352.722" r="2.958"/>
			
				<path fill="none" stroke="#FFFFFF" stroke-width="1.152" stroke-linecap="round" stroke-linejoin="round" stroke-miterlimit="10" d="
				M50.387,401.292v-0.875c0-1.361-0.968-2.465-2.16-2.465H30.07c-1.192,0-2.158,1.104-2.158,2.465v0.875H50.387z"/>
			
				<path fill="none" stroke="#FFFFFF" stroke-width="1.152" stroke-linecap="round" stroke-linejoin="round" stroke-miterlimit="10" d="
				M26.2,365.208v-1.756c0-1.361,1.104-2.466,2.464-2.466h21.07c1.359,0,2.465,1.104,2.465,2.466v1.756H26.2z"/>
		</g>
	</g>
</g>
</svg>
